<?xml version="1.0" encoding="UTF-8"?><svg xmlns="http://www.w3.org/2000/svg" xmlns:xlink="http://www.w3.org/1999/xlink" viewBox="0 0 250 140.12"><defs><radialGradient id="radial-gradient" cx="191.92" cy="32.1" fx="191.92" fy="32.1" r="31.24" gradientUnits="userSpaceOnUse"><stop offset="1.01" stop-color="#231f20"/><stop offset="0.5" stop-color="#231f20"/><stop offset="1" stop-color="#231f20"/></radialGradient><mask id="mask" x="160.68" y="1.86" width="40.49" height="40.49" maskUnits="userSpaceOnUse"><circle cx="191.92" cy="32.1" r="31.24" style="fill:url(#radial-gradient); stroke-width:0px;"/></mask></defs><g style="isolation:isolate;"><g id="Layer_2"><g id="Layer_1-2"><g id="Moon"><path d="M191.92,54.66c-12.44,0-22.56-10.12-22.56-22.56s10.12-22.56,22.56-22.56,22.56,10.12,22.56,22.56-10.12,22.56-22.56,22.56Z" style="fill:#1d2c36; stroke-width:0px;"/><path d="M210.83,29.85c.79.15,1.59.49,2.53.66-.18-2.53-.81-4.94-1.79-7.15-.6.48-1.18.93-1.69,1.17-1.83.86-1.35.7-2.95-.97-1.59-1.67-4.7-1.35-4.46.4.24,1.75-1.99.56-2.39-1.07s-2.47-1.63-3.9-3.62c-1.43-1.99-4.46-1.27-5.97-2.23-1.51-.96-4.86.72-1.59,1.59,3.26.88,2.55,1.83,1.83,3.42-.72,1.59-.72,3.9,1.83,5.97,2.55,2.07-.96.8-1.27,3.19-.32,2.39-4.86.56-6.69-1.99s-1.99.32-5.65,0c-3.66-.32-3.66.64-3.66-2.15,0-1.97-1.86-2.82-2.96-3.16-1.04,2.52-1.62,5.29-1.62,8.19,0,9,5.53,16.71,13.38,19.91.33-.94.71-1.77.99-2.32.72-1.42,3.74-.18,4.86-2.88,1.11-2.71,3.03-2.31,3.5.08s3.26,4.22,4.7,3.99.88-4.63.88-6.06,2.63-1.11,2.87-3.03c.24-1.91,2.15-1.59,3.66-.4s-.16,1.91-.24,5.89c-.01.67.04,1.26.14,1.76,2.23-1.75,4.11-3.92,5.51-6.41-.37-.68-.82-1.37-1.11-2.28-.86-2.7,1.19-2.63.88-5.89s-.88-4.86.4-4.62Z" style="fill:#231f20; stroke-width:0px;"/><path d="M193.51,13.81c.89-.09.68,1.04,1.83,1.04s1.07.76,1.55,1.39,0,2.11-.92,1.15c-.92-.96-1.63-1.71-2.47-1.23s-2.75-.4-3.15-.76-3.78-.92-4.46-.08c-.68.84-3.3,1.35-2.59.16s1.39-2.51,3.42-2.27c2.03.24,2.47,1.02,3.15-.03s2.11-1.09,2.31-.57c.2.52-.2,1.35,1.31,1.19Z" style="fill:#231f20; stroke-width:0px;"/><path d="M200.56,15s2.95-.83,3.26,1.16c.32,1.99,1.67,2.47,2.63,3.18.96.72-3.26,1.27-4.14,0-.88-1.27-1.91-.8-3.03-.8s-.32-3.75,1.27-3.55Z" style="fill:#231f20; stroke-width:0px;"/><path d="M190.14,38.63s2.36,1.32,3.69-.4c1.33-1.72,0-3.58,1.95-2.78,1.95.8,1.95,1.06,3.89.27,1.95-.8,4.79-.42,3.01,1.47-1.77,1.89-3.36-.42-4.33,1.93s.08,4.74-2.48,3.94c-2.56-.8-4.72-2.74-5.36-1.59-.65,1.15-4.04-2.43-.36-2.83Z" style="fill:#231f20; stroke-width:0px;"/><path d="M204.97,31.47s-.97-2.65,0-2.74,1.66-1.92,2.06-.33c.4,1.59-.63,1.35.63,2.17,1.26.82,1.49.95.6,2.08-.9,1.13-3.45.77-3.28-1.17Z" style="fill:#231f20; stroke-width:0px;"/><path d="M195.32,10.87c6.71,3.64,11.27,10.74,11.27,18.91,0,11.87-9.62,21.5-21.5,21.5-1.16,0-2.29-.09-3.4-.27,3.04,1.65,6.53,2.58,10.23,2.58,11.87,0,21.5-9.62,21.5-21.5,0-10.72-7.84-19.6-18.1-21.23Z" style="fill:#231f20; mix-blend-mode:multiply; stroke-width:0px;"/><ellipse cx="188.51" cy="30.83" rx="16.59" ry="13.16" transform="translate(97.24 198.63) rotate(-160.75)" style="fill:#231f20; mix-blend-mode:screen; stroke-width:0px;"/><g style="mask:url(#mask);"><circle cx="191.92" cy="32.1" r="31.24" style="fill:#231f20; stroke-width:0px;"/></g><rect width="250" height="140.12" style="fill:none; stroke-width:0px;"/></g></g></g></g></svg>