<?xml version="1.0" encoding="utf-8"?>
<!-- Generator: Adobe Illustrator 27.5.0, SVG Export Plug-In . SVG Version: 6.00 Build 0)  -->
<svg version="1.1" id="Layer_1" xmlns="http://www.w3.org/2000/svg" xmlns:xlink="http://www.w3.org/1999/xlink" x="0px" y="0px"
	 viewBox="0 0 4000 4000" style="enable-background:new 0 0 4000 4000;" xml:space="preserve">
<g>
	<g>
		<rect style="fill:#81B1FF;" width="0" height="0"/>
	</g>
	<g>
		<g>
			<g style="opacity:0.3;">
				<ellipse style="fill:#371A45;" cx="2906.117" cy="3328.358" rx="628.883" ry="74.74"/>
			</g>
			<g>
				<path style="fill:#F15A24;" d="M2663.213,3056.007c-49.816,1.718-105.504-42.153-137.245-80.587
					c-31.741-38.434-44.416-91.887-33.313-140.48c12.211-53.44,50.203-97.086,90.43-134.324
					c40.227-37.239,84.535-71.156,115.916-116.103c13.91-19.925,25.345-42.947,24.799-67.241s-16.172-49.493-39.971-54.399
					c32.289-1.749,56.504,12.418,75.255,38.763s24.933,60.518,20.01,92.478c-4.923,31.959-20.323,61.733-40.889,86.686
					c37.876,6.194,73.653-0.372,96.643-31.104c22.99-30.732,27.238-74.416,10.6-109.002c-11.412-23.722-32.036-44.393-33.389-70.682
					c-1.797-34.896,31.819-61.891,65.307-71.867c33.488-9.975,69.771-9.526,102.159-22.639
					c43.181-17.483,75.197-59.89,80.184-106.208c4.988-46.318-17.266-94.569-55.735-120.844
					c59.97-6.32,119.538,25.343,159.827,70.211c40.29,44.868,57.451,109.475,44.738,168.423
					c-7.711,35.753-25.402,68.399-40.319,101.794c-14.917,33.395-27.403,69.443-23.673,105.828s27.688,72.881,63.409,80.736
					c26.697,5.871,56.429-6.275,71.378-29.16c14.95-22.885,14.126-54.991-1.977-77.08c38.244,12.863,64.988,40.191,77.961,78.398
					c12.973,38.208,7.108,82.325-15.398,115.815c-18.081,26.907-46.93,49.117-51.131,81.262
					c-3.756,28.74,13.726,55.542,20.161,83.803c9.395,41.256-7.092,87.275-40.549,113.178s-161.56,12.492-199.149-6.936"/>
			</g>
			<g>
				<path style="fill:#FBB03B;" d="M3138.176,2835.978c2.466,23.95-4.488,39.28-24.328,52.92
					c-19.842,13.64-50.558,11.085-64.709-8.394c-13.581-18.696-8.79-45.308,2.191-65.641c10.982-20.333,27.304-37.522,37.261-58.376
					c12.663-26.524,13.955-58.251,3.491-85.718c-10.462-27.466-32.537-50.292-59.638-61.668
					c3.661,32.652-19.412,55.112-43.336,77.633c-23.925,22.52-53.338,38.168-80.261,57c-26.924,18.833-52.518,42.476-62.936,73.637
					c-10.419,31.161-0.796,70.891,28.449,85.865c-26.019,6.268-58.379-0.259-74.598-21.549
					c-16.219-21.289-18.482-52.27-5.531-75.691c-50.255,35.48-69.397,107.021-41.101,161.644
					c28.295,54.623,99.361,82.665,157.333,62.082l102.19,20.671c-0.844,0-1.687,0-2.529,0c38.099,1.693,74.164-3.104,106.581-23.192
					c32.417-20.088,57.405-53.445,63.094-91.155C3185.491,2898.335,3169.926,2857.105,3138.176,2835.978z"/>
				<path style="fill:#F15A24;" d="M3023.619,3062.5c-4.565,0-9.233-0.107-14.019-0.322c-1.831-0.083-3.545-0.576-5.063-1.392
					l-93.291-18.867c-62.998,20.508-138.037-9.878-168.594-68.848c-30.859-59.58-11.196-137.202,44.771-176.714
					c4.497-3.164,10.586-2.822,14.678,0.85c4.097,3.672,5.117,9.683,2.456,14.497c-10.718,19.385-8.828,45.22,4.59,62.832
					c8.301,10.894,21.963,16.758,36.055,18.555c-16.099-22.544-18.911-54.248-10.483-79.463
					c9.663-28.892,31.069-54.17,67.368-79.561c8.667-6.064,17.642-11.836,26.313-17.422c19.038-12.251,37.021-23.823,52.622-38.506
					c25.84-24.316,42.563-42.173,39.697-67.725c-0.469-4.155,1.304-8.252,4.653-10.762c3.345-2.51,7.769-3.052,11.636-1.431
					c29.858,12.534,54.57,38.081,66.099,68.345c11.528,30.269,10.083,65.781-3.867,95c-5.84,12.227-13.535,23.057-20.977,33.53
					c-6.104,8.589-11.87,16.704-16.553,25.371c-8.574,15.879-13.872,38.164-3.027,53.101c9.868,13.584,32.969,16.255,48.481,5.605
					c16.27-11.187,21.313-22.173,19.272-41.992c-0.469-4.541,1.729-8.945,5.64-11.309c3.906-2.358,8.828-2.251,12.636,0.278
					c34.57,23.003,53.359,67.871,46.753,111.65c-5.933,39.341-31.558,76.509-68.545,99.429
					C3095.289,3054.355,3063.458,3062.495,3023.619,3062.5z M3014.64,3038.754c39.678,1.221,70.132-5.645,95.85-21.582
					c31.182-19.321,52.729-50.308,57.646-82.886c3.95-26.216-3.853-53.618-19.624-73.013c-3.701,14.922-12.822,26.929-27.979,37.344
					c-25.879,17.783-63.691,12.559-80.942-11.182c-17.28-23.794-10.63-55.986,1.357-78.179c5.371-9.946,11.831-19.038,18.081-27.832
					c7.173-10.098,13.955-19.639,18.911-30.024c11.226-23.506,12.393-52.08,3.115-76.436c-7.168-18.809-20.664-35.361-37.515-46.563
					c-5.063,28.062-26.768,48.491-46.348,66.924c-17.178,16.167-36.924,28.872-56.021,41.162
					c-8.491,5.464-17.266,11.113-25.562,16.914c-31.943,22.344-50.537,43.857-58.511,67.705
					c-8.242,24.653-1.928,59.048,22.637,71.626c4.395,2.251,6.924,6.997,6.343,11.899c-0.586,4.897-4.16,8.921-8.955,10.073
					c-27.305,6.567-66.074,1.27-86.748-25.874c-10.039-13.174-15.498-29.614-16.152-46.23
					c-24.463,34.663-29.971,82.251-10.615,119.614c25.405,49.043,90.854,74.863,142.91,56.387c2.012-0.723,4.194-0.879,6.284-0.444
					L3014.64,3038.754z"/>
			</g>
			<g>
				<path style="fill:#F15A24;" d="M3023.619,3062.5c-4.565,0-9.233-0.107-14.019-0.322c-1.831-0.083-3.545-0.576-5.063-1.392
					l-93.291-18.867c-62.998,20.508-138.037-9.878-168.594-68.848c-30.859-59.58-11.196-137.202,44.771-176.714
					c4.497-3.164,10.586-2.822,14.678,0.85c4.097,3.672,5.117,9.683,2.456,14.497c-10.718,19.385-8.828,45.22,4.59,62.832
					c8.301,10.894,21.963,16.758,36.055,18.555c-16.099-22.544-18.911-54.248-10.483-79.463
					c9.663-28.892,31.069-54.17,67.368-79.561c8.667-6.064,17.642-11.836,26.313-17.422c19.038-12.251,37.021-23.823,52.622-38.506
					c25.84-24.316,42.563-42.173,39.697-67.725c-0.469-4.155,1.304-8.252,4.653-10.762c3.345-2.51,7.769-3.052,11.636-1.431
					c29.858,12.534,54.57,38.081,66.099,68.345c11.528,30.269,10.083,65.781-3.867,95c-5.84,12.227-13.535,23.057-20.977,33.53
					c-6.104,8.589-11.87,16.704-16.553,25.371c-8.574,15.879-13.872,38.164-3.027,53.101c9.868,13.584,32.969,16.255,48.481,5.605
					c16.27-11.187,21.313-22.173,19.272-41.992c-0.469-4.541,1.729-8.945,5.64-11.309c3.906-2.358,8.828-2.251,12.636,0.278
					c34.57,23.003,53.359,67.871,46.753,111.65c-5.933,39.341-31.558,76.509-68.545,99.429
					C3095.289,3054.355,3063.458,3062.495,3023.619,3062.5z M3014.64,3038.754c39.678,1.221,70.132-5.645,95.85-21.582
					c31.182-19.321,52.729-50.308,57.646-82.886c3.95-26.216-3.853-53.618-19.624-73.013c-3.701,14.922-12.822,26.929-27.979,37.344
					c-25.879,17.783-63.691,12.559-80.942-11.182c-17.28-23.794-10.63-55.986,1.357-78.179c5.371-9.946,11.831-19.038,18.081-27.832
					c7.173-10.098,13.955-19.639,18.911-30.024c11.226-23.506,12.393-52.08,3.115-76.436c-7.168-18.809-20.664-35.361-37.515-46.563
					c-5.063,28.062-26.768,48.491-46.348,66.924c-17.178,16.167-36.924,28.872-56.021,41.162
					c-8.491,5.464-17.266,11.113-25.562,16.914c-31.943,22.344-50.537,43.857-58.511,67.705
					c-8.242,24.653-1.928,59.048,22.637,71.626c4.395,2.251,6.924,6.997,6.343,11.899c-0.586,4.897-4.16,8.921-8.955,10.073
					c-27.305,6.567-66.074,1.27-86.748-25.874c-10.039-13.174-15.498-29.614-16.152-46.23
					c-24.463,34.663-29.971,82.251-10.615,119.614c25.405,49.043,90.854,74.863,142.91,56.387c2.012-0.723,4.194-0.879,6.284-0.444
					L3014.64,3038.754z"/>
			</g>
			<g>
				<path style="fill:#ED1C24;" d="M2660.338,3067.856c-54.043,0-110.815-45.391-143.467-84.922
					c-33.886-41.03-47.568-98.745-35.718-150.62c13.716-60.039,57.397-106.548,93.916-140.356
					c9.585-8.872,19.512-17.656,29.111-26.152c30.469-26.968,61.968-54.849,85.146-88.047
					c15.664-22.437,23.086-42.139,22.676-60.225c-0.41-18.174-11.948-39.272-30.557-43.105c-5.811-1.201-9.824-6.523-9.385-12.437
					c0.444-5.913,5.205-10.581,11.128-10.903c34.751-1.929,63.525,12.822,85.508,43.706c19.658,27.622,27.7,64.478,22.056,101.113
					c-3.945,25.64-14.419,51.299-30.566,75.186c28.736,0.757,50.562-8.882,65.215-28.467c20.381-27.246,24.165-66.157,9.414-96.816
					c-3.447-7.158-7.856-14.102-12.529-21.455c-10.293-16.211-20.942-32.969-22.012-53.735
					c-2.153-41.836,36.704-72.754,73.721-83.784c15.288-4.556,30.986-7.021,46.167-9.404c19.468-3.062,37.856-5.947,54.932-12.861
					c39.082-15.825,68.369-54.619,72.881-96.538c4.517-41.914-15.84-86.055-50.654-109.839c-4.087-2.788-5.996-7.832-4.785-12.627
					c1.211-4.8,5.283-8.33,10.205-8.848c59.063-6.255,122.598,21.455,169.839,74.067c42.798,47.651,61.001,116.162,47.495,178.784
					c-6.338,29.385-19.028,56.577-31.304,82.871c-3.301,7.075-6.606,14.146-9.78,21.255c-13.247,29.658-26.304,64.707-22.705,99.81
					c3.047,29.736,22.646,63.477,54.204,70.415c21.875,4.814,46.699-5.313,58.97-24.092c12.261-18.774,11.577-45.557-1.636-63.677
					c-3.022-4.15-3.018-9.78,0.02-13.926c3.037-4.141,8.393-5.859,13.281-4.204c41.533,13.975,71.055,43.638,85.366,85.786
					c14.087,41.479,7.656,89.834-16.772,126.191c-5.933,8.828-12.847,17.051-19.531,25c-14.009,16.665-27.241,32.402-29.697,51.206
					c-2.08,15.928,3.901,32.129,10.239,49.282c3.604,9.766,7.334,19.863,9.727,30.371c10.469,45.981-7.544,96.265-44.829,125.132
					c-38.296,29.658-172.603,14.468-211.792-5.781c-5.786-2.993-8.052-10.112-5.063-15.903c2.993-5.781,10.112-8.042,15.903-5.063
					c35.166,18.184,158.579,29.712,186.509,8.086c29.688-22.983,44.6-64.614,36.265-101.23c-2.056-9.014-5.356-17.959-8.857-27.437
					c-7.046-19.082-14.336-38.813-11.499-60.513c3.35-25.649,19.458-44.81,35.034-63.335c6.572-7.817,12.778-15.2,18.003-22.979
					c20.415-30.381,25.786-70.781,14.019-105.439c-8.496-25.015-23.428-44.717-43.828-58.12
					c3.984,20.239,0.332,41.953-11.104,59.458c-17.71,27.114-52.173,41.201-83.794,34.233c-38.115-8.384-67.974-45.825-72.612-91.06
					c-4.165-40.625,10.117-79.331,24.639-111.841c3.228-7.222,6.582-14.414,9.942-21.606c12.26-26.27,23.838-51.079,29.619-77.866
					c11.938-55.356-4.15-115.918-41.987-158.042c-34.141-38.022-77.314-61.523-119.893-66.23
					c26.45,29.673,40.562,70.776,36.313,110.239c-5.42,50.317-40.576,96.885-87.49,115.884c-19.59,7.93-40.2,11.167-60.127,14.297
					c-15.078,2.368-29.316,4.604-43.091,8.711c-29.355,8.745-58.325,32.144-56.895,59.951c0.752,14.565,9.312,28.037,18.369,42.3
					c4.829,7.603,9.824,15.469,13.872,23.872c18.462,38.379,13.73,87.08-11.782,121.187
					c-23.262,31.089-60.586,43.428-107.998,35.684c-4.165-0.684-7.651-3.54-9.141-7.49c-1.484-3.955-0.747-8.398,1.938-11.66
					c20.811-25.249,34.063-53.252,38.335-80.981c4.712-30.615-1.831-61.177-17.964-83.838c-6.538-9.185-13.525-16.44-21.118-21.841
					c4.399,9.219,7.002,19.59,7.246,30.371c0.522,23.276-8.281,47.568-26.924,74.258c-24.78,35.503-57.354,64.331-88.853,92.212
					c-9.502,8.408-19.331,17.104-28.716,25.796c-34.033,31.504-74.668,74.556-86.943,128.296
					c-10.259,44.893,1.582,94.834,30.903,130.337c32.266,39.058,84.106,77.837,127.744,76.309c0.137-0.005,0.273-0.005,0.415-0.005
					c6.328,0,11.563,5.015,11.782,11.392c0.225,6.509-4.873,11.973-11.387,12.197
					C2662.531,3067.836,2661.432,3067.856,2660.338,3067.856z"/>
			</g>
			<g>
				<g>
					<g>
						<path style="fill:#A46239;" d="M3033.317,3141.268l204.921,161.658c51.089,40.303,129.282,31.581,165.398-21.399
							c1.458-2.139,2.844-4.327,4.152-6.562c23.543-40.226,23.085-92.223-1.165-132.068
							c-107.91-43.13-217.477-84.784-325.696-127.64c-33.203-13.149-71.684,4.452-79.977,37.753
							c-0.103,0.415-0.204,0.832-0.302,1.253C2993.95,3083.106,3009.42,3122.417,3033.317,3141.268z"/>
					</g>
					<g style="opacity:0.6;">
						<path style="fill:#FFFFFF;" d="M3080.928,3079.785c108.219,42.855,343.766,92.802,325.695,63.112
							c-107.909-43.13-217.476-84.785-325.695-127.64c-33.204-13.148-71.684,4.453-79.976,37.753
							c-0.104,0.414-0.204,0.832-0.302,1.253c-3.525,15.173-0.871,33.228,5.875,49.692
							C3020.519,3079.773,3052.609,3068.571,3080.928,3079.785z"/>
					</g>
					<g style="opacity:0.3;">
						<path style="fill:#371A45;" d="M3417.833,3157.52c-23.693-27.588-58.22-18.286-78.893,1.031
							c-14.056,13.132-22.954,30.334-31.59,47.181c-1.873,3.656-3.737,7.442-5.504,11.315c-9.847,21.578-38.417,29.367-57.669,14.61
							c-0.411-0.315-0.821-0.634-1.229-0.956l-204.92-161.659c-11.187-8.825-20.485-22.15-26.566-36.769
							c-4.862,5.917-8.551,12.87-10.51,20.738c-0.104,0.414-0.204,0.832-0.302,1.253c-6.699,28.842,8.77,68.153,32.667,87.004
							c0,0,204.603,161.407,204.923,161.658c75.329,59.425,154.391,8.858,182.586-62.489c0.217-0.551,0.524-1.115,0.722-1.663
							c0.036-0.101,0.038-0.211,0.074-0.312c4.496-11.833,7.616-24.199,9.061-36.721
							C3432.5,3185.987,3428.372,3169.791,3417.833,3157.52z"/>
					</g>
					<g>
						<path style="fill:#371A45;" d="M3311.7,3348.774c-31.24,0-61.802-10.352-86.25-29.639l-204.922-161.655l0,0
							c-30.83-24.321-48.394-71.709-39.99-107.891l0.356-1.494c5.205-20.879,19.492-38.613,39.224-48.75
							c21.221-10.903,46.162-12.1,68.398-3.291c48.516,19.214,98.154,38.516,146.157,57.183
							c59.019,22.949,120.044,46.68,179.609,70.483c4.15,1.66,7.651,4.619,9.976,8.438c28.193,46.323,28.726,106.475,1.353,153.237
							c-1.548,2.637-3.184,5.225-4.902,7.749c-19.917,29.219-51.016,48.389-87.573,53.994
							C3325.997,3348.237,3318.834,3348.774,3311.7,3348.774z M3046.104,3125.058l204.922,161.655
							c21.069,16.621,48.711,23.765,75.845,19.609c25.117-3.853,46.318-16.792,59.707-36.426c1.182-1.738,2.319-3.525,3.389-5.361
							c18.696-31.938,19.404-72.505,2.275-105.151c-57.256-22.837-115.825-45.61-172.534-67.661
							c-48.062-18.687-97.759-38.013-146.396-57.271c-11.191-4.438-23.696-3.838-34.321,1.621
							c-9.272,4.766-15.669,12.549-18.003,21.914l-0.215,0.898C3016.026,3079.34,3028.102,3110.854,3046.104,3125.058
							L3046.104,3125.058z"/>
					</g>
					<g>
						<path style="fill:#371A45;" d="M3398.463,3173.094c-20.488-0.748-42.601,7.392-59.918,22.216
							c-17.312,14.69-30.138,36.16-31.721,59.92l-0.007,0.116c-0.277,4.148-3.864,7.287-8.011,7.01
							c-3.712-0.247-6.616-3.148-6.986-6.729c-1.476-14.115,0.457-28.673,5.138-42.285c4.678-13.638,12.018-26.388,21.361-37.617
							c9.352-11.228,20.731-20.983,33.756-28.576c13.009-7.587,27.737-12.98,43.365-15.243l0.807-0.117
							c11.35-1.643,21.884,6.226,23.527,17.576s-6.227,21.883-17.577,23.526C3400.978,3173.07,3399.653,3173.13,3398.463,3173.094z"
							/>
					</g>
				</g>
				<g>
					<path style="fill:#A46239;" d="M2893.197,3103.344c-96.28,72.8-192.559,145.6-288.84,218.4
						c-3.186,2.419-6.961,3.776-10.913,3.717c-32.39-0.708-67.196-14.866-86.015-40.824c-18.348-25.191-24.425-58.818-16.519-88.906
						c1.357-5.073,4.72-9.321,9.381-11.681c37.461-19.292,77.224-42.417,115.277-62.712c10.264-5.486,12.624-18.76,5.309-27.846
						c-4.365-5.487-7.906-11.563-10.678-18.052c-2.3-5.546-1.887-11.681,1.002-16.696c0.65-0.944,1.299-1.888,2.065-2.773
						c2.655-3.068,5.074-6.372,7.433-9.616c6.49-8.849,19.292-10.029,27.138-2.419c17.226,16.578,39.822,26.666,64.009,24.778
						c63.065-5.015,114.097-43.892,171.794-69.732c7.197-3.245,15.692-1.18,20.942,4.779c0.827,0.885,1.593,1.829,2.361,2.773
						c0.531,0.649,1.002,1.298,1.475,1.947C2930.6,3038.096,2922.989,3080.808,2893.197,3103.344z"/>
				</g>
				<g style="opacity:0.6;">
					<path style="fill:#FFFFFF;" d="M2908.418,3008.48c-24.366,21.062-46.547,44.01-74.511,61.355
						c-40.175,24.837-87.607,40.706-134.449,35.161c-33.687-4.012-66.665-20.648-88.258-46.252c0.65-0.944,1.299-1.888,2.065-2.773
						c2.655-3.068,5.074-6.372,7.433-9.616c6.49-8.849,19.292-10.029,27.138-2.419c17.226,16.578,39.822,26.666,64.009,24.778
						c63.065-5.015,114.097-43.892,171.794-69.732c7.197-3.245,15.692-1.18,20.942,4.779c0.827,0.885,1.593,1.829,2.361,2.773
						C2907.474,3007.182,2907.945,3007.831,2908.418,3008.48z"/>
				</g>
				<g style="opacity:0.3;">
					<g>
						<path style="fill:#371A45;" d="M2490.909,3195.73c-7.906,30.088-1.829,63.715,16.519,88.906
							c18.819,25.958,53.625,40.117,86.015,40.824c3.952,0.059,7.727-1.298,10.913-3.717c96.28-72.8,192.559-145.6,288.84-218.4
							c27.814-21.039,36.274-59.656,19.229-88.792c-68.004,77.215-147.525,144.27-235.197,198.127
							c-27.284,16.76-56.394,32.597-88.266,35.669c-31.873,3.073-67.247-9.598-82.259-37.881
							c-3.912-7.369-6.754-15.896-9.591-24.351C2494.105,3188.548,2491.934,3191.901,2490.909,3195.73z"/>
					</g>
				</g>
				<g>
					<path style="fill:#371A45;" d="M2593.761,3346.113c-0.269,0-0.532-0.005-0.796-0.01
						c-41.646-0.938-80.825-19.824-102.256-49.297c-21.943-30.181-29.326-69.932-19.751-106.333
						c2.808-10.693,10.059-19.731,19.883-24.79c21.167-10.879,43.584-23.311,65.264-35.332c15.532-8.618,31.572-17.51,47.202-25.864
						c-4.849-6.382-8.921-13.447-12.124-21.045c-5.879-13.921-3.384-29.644,6.504-41.03c2.075-2.388,4.155-5.229,6.353-8.232
						c6.631-9.082,16.841-14.829,28.022-15.791c11.191-0.962,22.119,2.93,30.142,10.669c14.121,13.628,31.216,20.415,47.993,19.067
						c40.444-3.203,76.455-22.363,114.575-42.646c16.211-8.628,32.979-17.549,50.405-25.366c15.454-6.938,33.511-2.944,44.902,9.941
						c1.025,1.162,2.012,2.329,2.964,3.516l0,0c14.604,18.154,21.05,41.128,18.14,64.692c-3.008,24.321-15.957,46.763-35.537,61.563
						l-288.848,218.413C2610.064,3343.33,2601.915,3346.108,2593.761,3346.113z M2510.656,3201.933
						c-5.982,23.945-0.865,50.894,13.452,70.586c13.589,18.687,40.361,31.265,68.472,32.261l288.159-217.896
						c10.723-8.105,17.813-20.386,19.458-33.687c1.528-12.383-1.782-24.365-9.331-33.74c0-0.005-0.005-0.01-0.01-0.015
						c-0.215-0.269-0.435-0.537-0.654-0.801c-15.537,7.065-31.031,15.308-46.031,23.291
						c-40.171,21.377-81.709,43.477-130.713,47.363c-27.896,2.158-55.381-7.891-77.754-28.467c-1.865,2.529-3.813,5.098-5.991,7.676
						c1.968,4.414,4.414,8.457,7.29,12.046c7.432,9.263,10.342,21.182,7.974,32.695c-2.319,11.299-9.512,20.898-19.722,26.338
						c-16.118,8.574-32.895,17.881-49.121,26.88C2554.488,3178.471,2532.11,3190.878,2510.656,3201.933z M2604.786,3106.386
						c0.005,0,0.005,0,0.005,0S2604.791,3106.386,2604.786,3106.386z"/>
				</g>
				<g>
					<g>
						<path style="fill:#A46239;" d="M2935.838,3024.059c-42.348-4.253-81.033,24.526-90.871,65.934l-40.405,170.071
							c-10.124,42.613,35.651,90.449,75.359,108.931c39.708,18.482,88.604,15.662,125.925-7.263
							c37.32-22.925,61.94-65.264,63.406-109.039c0.151-4.525-40.755-113.868-62.852-173.232
							c-11.079-29.765-37.532-51.742-69.098-55.247C2936.815,3024.16,2936.327,3024.108,2935.838,3024.059z"/>
					</g>
					<g style="opacity:0.6;">
						<path style="fill:#FFFFFF;" d="M3069.198,3253.618c0.012-0.309,0.045-0.616,0.055-0.925
							c0.153-4.525-40.755-113.867-62.851-173.232c-11.079-29.765-37.533-51.742-69.099-55.248
							c-0.488-0.054-0.976-0.106-1.465-0.155c-42.348-4.253-81.033,24.526-90.871,65.934l-35.737,150.422
							c7.164-6.226,15.195-11.662,24.333-15.846c2.322-1.063,4.703-1.941,7.106-2.692l26.362-103.664
							c7.497-29.478,36.974-49.966,69.243-46.938c0.373,0.035,0.745,0.152,1.117,0.11
							C2999.08,3064.414,3056.713,3237.67,3069.198,3253.618z"/>
					</g>
					<g>
						<path style="fill:#371A45;" d="M2931.578,3239.325c-10.679,4.474-17.946,12.782-21.825,21.973
							c-3.979,9.121-4.567,19.274-1.478,27.07c2.913,7.795,9.33,13.436,17.272,16.537c7.939,2.976,17.074,3.203,24.309,0.441
							c3.634-1.436,6.733-3.255,9.391-6.16c2.646-2.801,4.764-6.159,5.796-9.584c1.1-3.489,1.218-6.687,0.284-9.822
							c-0.883-3.249-3.042-6.26-5.538-8.15c-2.625-1.86-5.181-2.734-8.699-1.978c-3.403,0.682-6.786,2.892-8.442,5.819
							c-0.804,1.542-1.292,3.046-1.204,4.9c0.095,1.849,0.822,3.92,2.073,5.754c2.478,3.678,6.891,6.646,12.159,5.928l0.471-0.064
							c0.479-0.065,0.92,0.27,0.985,0.749l0.009,0.098c0.039,1.751,0.068,3.503,0.042,5.268c-0.767-1.59-1.476-3.193-2.177-4.797
							l1.464,0.782c-5.485,3.452-13.372,1.97-18.683-2.276c-2.693-2.167-5-5.043-6.423-8.611c-1.475-3.558-1.731-7.905-0.779-11.703
							c1.885-7.861,7.728-13.877,14.763-17.151c3.577-1.6,7.594-2.578,11.865-2.466c4.333,0.119,8.275,1.282,11.951,3.086
							c7.325,3.644,12.714,9.841,15.905,17.058c1.609,3.589,2.555,7.695,2.821,11.678c0.26,3.951-0.072,7.903-0.966,11.639
							c-1.863,7.462-5.514,14.132-10.443,19.63c-4.867,5.479-11.494,9.968-18.381,12.432c-13.937,5.033-28.838,3.738-41.5-2.215
							c-6.334-3.017-12.164-7.36-16.763-12.919c-4.661-5.491-7.871-12.308-9.266-19.257c-2.731-14.068,1.653-27.771,9.523-37.659
							C2907.893,3245.466,2919.858,3238.654,2931.578,3239.325z"/>
					</g>
					<g>
						<path style="fill:#371A45;" d="M2994.843,3218.26c-16.349-14.31-35.583-20.92-54.319-22.025
							c-4.68-0.232-9.294-0.048-13.81,0.35c-4.454,0.581-8.987,1.393-13.398,2.6c-4.406,1.294-8.711,2.947-12.894,4.897
							c-4.174,2.007-8.14,4.437-12.053,6.938c-7.76,5.161-14.757,11.529-20.781,18.65c-6.068,7.01-11.119,15.063-15.378,23.616
							c-8.501,17.159-13.284,36.622-15.41,56.643l-0.024,0.229c-1.206,11.349-11.383,19.572-22.732,18.366
							c-10.679-1.135-18.586-10.303-18.48-20.825c0.336-25.116,6.116-50.673,18.087-73.962
							c6.016-11.613,13.665-22.507,22.767-32.313c9.224-9.611,19.784-17.852,31.378-24.451
							c11.656-6.498,24.452-11.082,37.734-13.469c6.67-1.097,13.387-1.731,20.247-1.565c6.804,0.221,13.507,1.172,20.009,2.713
							c6.479,1.67,12.744,3.931,18.68,6.805c5.858,3.069,11.461,6.499,16.536,10.595c4.989,4.222,9.58,8.822,13.391,13.99
							c3.798,5.179,6.82,10.842,8.927,16.705c0.97,2.698-0.431,5.672-3.13,6.642c-1.835,0.66-3.798,0.222-5.171-0.974
							L2994.843,3218.26z"/>
					</g>
					<g>
						<path style="fill:#371A45;" d="M2935.904,3401.865c-22.168,0-44.346-4.678-64.692-14.15
							c-42.92-19.976-100.171-75.879-86.738-132.422l40.405-170.068c12.31-51.821,60.82-86.938,113.022-81.714l1.66,0.181
							c38.452,4.268,72.275,31.182,86.191,68.569l6.343,17.031c58.071,155.898,58.008,157.798,57.793,164.092
							c-1.704,50.981-29.766,99.243-73.238,125.942C2992.315,3394.277,2964.122,3401.865,2935.904,3401.865z M2927.594,3044.292
							c-29.219,0-55.483,20.781-62.539,50.479l-40.405,170.063c-6.812,28.687,28.164,68.765,63.984,85.439
							c33.325,15.503,75.083,13.096,106.406-6.133c30.557-18.774,51.318-53.657,53.452-89.458
							c-5.029-16.563-37.368-103.379-55.093-150.977l-6.348-17.041c-8.525-22.905-28.95-39.365-52.026-41.929l-1.226-0.132
							c-0.01,0-0.019,0-0.029,0C2931.705,3044.394,2929.64,3044.292,2927.594,3044.292z M3049.005,3256.489h0.049H3049.005z"/>
					</g>
				</g>
				<g>
					<path style="fill:#371A45;" d="M2479.176,3177.794c24.272-13.211,52.384-14.781,76.449-5.881
						c24.032,9.032,42.321,28.005,50.575,50.224c1.459,3.928-0.543,8.294-4.47,9.753c-3.435,1.276-7.207-0.095-9.073-3.088
						l-0.089-0.144c-10.171-16.279-27.437-27.144-44.514-29.577c-17.051-2.551-34.801,3.026-46.211,13.233
						c-8.584,7.679-21.769,6.947-29.449-1.638c-7.679-8.584-6.946-21.769,1.638-29.449c1.199-1.072,2.487-1.98,3.837-2.726
						L2479.176,3177.794z"/>
				</g>
			</g>
			<g>
				<g>
					<path style="fill:#F15A24;" d="M3301.785,2316.28c2.796,0.042,5.626,0.086,8.472,0.162
						C3307.539,2315.85,3304.703,2315.721,3301.785,2316.28z"/>
				</g>
				<g>
					<path style="fill:#F15A24;" d="M3364.773,2332.814c-13.961-13.748-34.581-15.841-54.516-16.372
						c14.031,3.055,24.567,19.886,23.016,35.151c-1.852,18.221-15.001,33.115-28.407,45.592
						c-13.408,12.478-28.223,24.594-35.357,41.463c-10.831,25.61,1.321,58.621,26.173,71.095
						c-5.967-19.838,11.426-30.273,23.128-47.367c17.498-25.563,51.438-38.91,61.992-68.036
						C3388.431,2373.289,3380.725,2348.524,3364.773,2332.814z"/>
				</g>
			</g>
			<g>
				<g>
					<path style="fill:#F15A24;" d="M3310.26,2328.237c-0.103,0-0.205,0-0.308,0c-2.754-0.073-5.493-0.117-8.203-0.156
						c-6.05-0.098-11.123-4.756-11.646-10.781c-0.522-6.03,3.525-11.479,9.468-12.612c4.312-0.82,8.735-0.752,13.193,0.225
						c5.947,1.294,9.932,6.899,9.204,12.939C3321.251,2323.793,3316.212,2328.237,3310.26,2328.237z M3301.783,2316.279h0.049
						H3301.783z"/>
				</g>
				<g>
					<path style="fill:#ED1C24;" d="M3295.685,2521.538c-1.802,0-3.613-0.41-5.293-1.25c-30.503-15.308-45.044-54.8-31.753-86.235
						c7.26-17.163,20.478-29.268,33.261-40.972c1.65-1.514,3.301-3.022,4.927-4.536c11.377-10.586,23.208-23.394,24.707-38.145
						c0.977-9.595-5.854-20.703-13.789-22.432c-5.952-1.294-9.937-6.904-9.204-12.949c0.718-5.938,5.762-10.376,11.709-10.376
						c0.107,0,0.215,0,0.317,0c22.646,0.605,45.884,3.418,62.48,19.761h0.005c20.117,19.819,27.69,49.536,18.843,73.955
						c-7.168,19.79-22.573,32.627-37.471,45.044c-9.971,8.311-19.39,16.157-25.879,25.635c-3.491,5.103-7.388,9.614-10.825,13.599
						c-9.814,11.377-13.042,16.04-10.737,23.701c1.357,4.517-0.098,9.404-3.706,12.437
						C3301.104,2520.595,3298.404,2521.538,3295.685,2521.538z M3342.398,2332.739c2.31,6.333,3.311,13.203,2.612,20.049
						c-2.3,22.666-18.369,40.249-32.109,53.032c-1.67,1.558-3.364,3.11-5.063,4.663c-11.421,10.459-22.207,20.332-27.461,32.759
						c-5.908,13.975-3.022,30.908,5.85,43.188c3.447-7.407,8.828-13.647,13.628-19.209c3.184-3.687,6.47-7.5,9.219-11.514
						c8.34-12.178,19.473-21.46,30.244-30.435c13.062-10.884,25.396-21.167,30.391-34.951c5.674-15.659,0.239-35.85-13.218-49.102
						C3352.599,2337.387,3347.887,2334.667,3342.398,2332.739z"/>
				</g>
			</g>
			<g style="opacity:0.3;">
				<path style="fill:#371A45;" d="M3068.949,3248.852c0.125-3.729-27.628-78.628-49.764-138.092v0
					c-1.613,43.253-40.163,75.161-83.099,69.687c-32.373-4.128-66.513,4.356-91.813,26.361
					c-20.768,18.063-34.323,42.575-40.831,69.15c4.646,36.784,42.524,73.532,76.177,89.196
					c39.708,18.482,88.604,15.662,125.925-7.263C3042.864,3334.966,3067.484,3292.627,3068.949,3248.852z"/>
			</g>
		</g>
		<g>
			<g style="opacity:0.2;">
				<ellipse style="fill:#371A45;" cx="1376.243" cy="3322.779" rx="750.109" ry="76.041"/>
			</g>
			<g>
				<path style="fill:#FFFFFF;" d="M1053.986,1686.334c-67.521,1.351-134.78,13.208-198.801,34.693
					c-85.614,28.731-148.426,102.663-162.939,191.794c-22.66,139.156-28.82,278.695-16.147,417.898
					c14.127,155.17,125.197,284.202,277.119,318.8c55.241,12.58,111.751,18.79,168.605,17.109L1053.986,1686.334z"/>
			</g>
			<g style="opacity:0.3;">
				<path style="fill:#371A45;" d="M1123.531,1686.334c-67.521,1.351-134.78,13.208-198.801,34.693
					c-85.614,28.731-148.426,102.663-162.939,191.794c-22.66,139.156-28.82,278.695-16.147,417.898
					c14.127,155.17,125.197,284.202,277.119,318.8c55.241,12.58,111.751,18.79,168.605,17.109L1123.531,1686.334z"/>
			</g>
			<g>
				<path style="fill:#371A45;" d="M1103.639,2684.594c-50.522,0.005-102.349-5.977-154.351-17.817
					c-159.028-36.216-275.898-170.625-290.815-334.453c-12.485-137.134-7.002-279.229,16.304-422.349
					c15.625-95.962,82.598-174.795,174.78-205.728c66.279-22.246,134.941-34.224,204.072-35.61c0.122,0,0.244-0.005,0.361-0.005
					c9.614,0,17.495,7.695,17.69,17.344c0.195,9.775-7.568,17.856-17.339,18.052c-65.542,1.313-130.654,12.676-193.525,33.774
					c-79.692,26.743-137.593,94.897-151.099,177.861c-22.832,140.181-28.208,279.282-15.991,413.447
					c13.52,148.521,119.38,270.352,263.423,303.154c55.523,12.642,110.767,18.237,164.15,16.675
					c9.663-0.215,17.925,7.397,18.213,17.168s-7.397,17.925-17.168,18.213C1116.134,2684.506,1109.894,2684.594,1103.639,2684.594z"
					/>
			</g>
			<g>
				<g>
					<path style="fill:#FFFFFF;" d="M1851.172,2475.659h-297.368c-34.624,0-62.692-28.068-62.692-62.692v-24.17
						c0-34.624,28.068-62.692,62.692-62.692h297.368c34.624,0,62.692,28.068,62.692,62.692v24.17
						C1913.864,2447.591,1885.796,2475.659,1851.172,2475.659z"/>
				</g>
				<g>
					<path style="fill:#371A45;" d="M1851.173,2493.359h-297.368c-44.326,0-80.391-36.064-80.391-80.391v-24.17
						c0-44.331,36.065-80.396,80.391-80.396h297.368c44.326,0,80.391,36.064,80.391,80.396v24.17
						C1931.564,2457.294,1895.499,2493.359,1851.173,2493.359z M1553.805,2343.803c-24.81,0-44.99,20.186-44.99,44.995v24.17
						c0,24.81,20.181,44.99,44.99,44.99h297.368c24.81,0,44.99-20.181,44.99-44.99v-24.17c0-24.81-20.181-44.995-44.99-44.995
						H1553.805z"/>
				</g>
			</g>
			<g>
				<path style="fill:#FFFFFF;" d="M2226.338,1743.254c-47.58,8.694-95.752,31.512-139.051,53.069
					c-67.502,33.607-147.264,35.578-221.099,20.257c-73.832-15.32-143.183-46.768-211.825-77.982c2.62-2.824,5.24-5.648,7.858-8.473
					c-112.902-20.98-238.69-35.231-353.501-37.598c-114.809-2.367-232.021,14.798-334.47,66.675s-188.896,141.317-221.348,251.471
					c-32.45,110.154-3.917,240.062,82.757,315.392c31.682,27.534,69.316,46.399,109.524,57.544
					c-1.639,137.077,18.284,274.818,18.284,274.818c-33.928,173.721-40.714,484.464-40.714,484.464
					c-13.41,13.695-23.436,26.635-30.72,38.792c-34.514,57.603,8.767,130.843,75.918,130.843h259.651
					c42.162,0,78.201-30.116,85.942-71.562c39.762-212.884,139.635-403.417,139.635-403.417
					c306.441,0,439.802-235.78,388.321-556.799c-5.674-35.389-13.665-69.993-23.635-103.593c41.947,9.341,86.205,8.323,127.532-3.51
					c130.815-159.166,253.693-321.151,384.51-480.318C2289.143,1687.488,2245.831,1706.979,2226.338,1743.254z"/>
			</g>
			<g>
				<path style="fill:#FFFFFF;" d="M929.101,2988.27c0,0,288.532-47.907,432.866,69.567"/>
			</g>
			<g>
				<path style="fill:#FFFFFF;" d="M922.755,3142.892c0,0,70.87-17.341,134.2,0"/>
			</g>
			<g>
				<g>
					<path style="fill:#371A45;" d="M1227.604,3330.229H967.955c-38.56,0-72.979-20.117-92.07-53.818
						c-18.638-32.891-18.276-71.704,0.967-103.823c7.3-12.188,16.831-24.6,28.374-36.973c1.221-47.583,9.341-316.353,40.308-477.661
						c-3.145-22.969-22.656-172.666-17.188-308.789c0.395-9.766,8.721-17.295,18.398-16.973c9.766,0.396,17.363,8.628,16.973,18.398
						c-5.781,143.813,17.036,303.706,17.266,305.303c0.288,1.968,0.239,3.975-0.146,5.928
						c-33.242,170.22-40.317,478.364-40.386,481.455c-0.098,4.497-1.904,8.784-5.049,11.997
						c-11.821,12.075-21.304,24.019-28.188,35.508c-12.603,21.035-12.803,46.528-0.532,68.184
						c12.725,22.456,35.63,35.864,61.274,35.864h259.648c33.54,0,62.363-24.019,68.545-57.109
						c39.79-213.037,140.347-406.46,141.357-408.389c3.052-5.83,9.092-9.482,15.674-9.482c125.42,0,222.783-39.619,289.39-117.764
						c80.64-94.6,109.57-243.242,81.455-418.535c-6.382-39.8-15.874-79.507-28.218-118.013c-2.983-9.307,2.144-19.272,11.455-22.256
						c9.282-2.983,19.272,2.144,22.256,11.455c12.881,40.195,22.793,81.65,29.458,123.208
						c29.78,185.698-1.992,344.482-89.468,447.104c-70.62,82.852-176.045,127.71-305.391,130.098
						c-20.166,40.679-99.302,207.725-133.174,389.067C1321.637,3294.052,1278.175,3330.229,1227.604,3330.229z"/>
				</g>
				<g>
					<path style="fill:#371A45;" d="M1749.691,2001.155c31.741,47.858,58.512,99.447,79.828,153.579l0.016,0.04
						c3.589,9.115-0.89,19.415-10.006,23.005c-9.115,3.59-19.415-0.891-23.004-10.006c-0.28-0.708-0.532-1.521-0.714-2.238
						c-13.39-54.112-32.465-107.228-57.2-158.034c-1.552-3.174-0.237-7.006,2.938-8.558
						C1744.465,1997.517,1747.943,1998.521,1749.691,2001.155z"/>
				</g>
				<g>
					<path style="fill:#371A45;" d="M1361.959,3075.537c-3.926,0-7.881-1.299-11.162-3.975
						c-136.392-111.006-415.991-66.299-418.799-65.83c-9.697,1.587-18.755-4.927-20.352-14.565
						c-1.602-9.644,4.917-18.755,14.556-20.356c12.109-2.012,298.12-47.827,446.939,73.301c7.583,6.167,8.726,17.314,2.554,24.897
						C1372.198,3073.305,1367.101,3075.537,1361.959,3075.537z"/>
				</g>
				<g>
					<path style="fill:#371A45;" d="M918.549,3125.7c6.585-1.005,12.196-1.537,18.218-2.013c5.92-0.471,11.823-0.75,17.715-0.944
						c11.786-0.332,23.556-0.074,35.271,0.744c11.71,0.74,23.385,2.375,34.894,4.539c11.525,2.128,22.838,5.44,33.85,9.239
						c3.052,1.052,4.672,4.379,3.619,7.43c-0.938,2.72-3.683,4.302-6.428,3.869l-0.272-0.043
						c-10.865-1.705-21.714-2.915-32.666-2.995c-10.931-0.111-21.835,0.268-32.692,1.493c-10.846,1.148-21.625,2.811-32.264,5.004
						c-5.315,1.123-10.602,2.317-15.816,3.675c-5.12,1.313-10.603,2.871-15.016,4.386c-9.283,3.186-19.392-1.757-22.578-11.04
						c-3.186-9.283,1.757-19.392,11.04-22.578c0.991-0.34,1.991-0.587,2.991-0.747L918.549,3125.7z"/>
				</g>
			</g>
			<g>
				<g>
					<path style="fill:#FFFFFF;" d="M1830.474,3312.507h-234.746c-38.068,0-70.649-30.117-77.686-71.564
						c-22.799-135.105-67.483-261.203-97.037-335.3c18.789-42.643,32.158-68.115,32.158-68.115
						c179.014,0,298.99-80.43,357.537-211.384c54.885,188.795,60.585,516.777,60.585,516.777
						c12.173,13.651,21.251,26.599,27.797,38.772C1930.254,3239.254,1891.13,3312.507,1830.474,3312.507z"/>
				</g>
				<g>
					<path style="fill:#371A45;" d="M1830.475,3330.209h-234.746c-46.636,0-86.646-36.299-95.137-86.304
						c-21.982-130.273-64.351-252.285-96.025-331.704c-1.758-4.414-1.67-9.346,0.244-13.696c18.818-42.7,32.124-68.14,32.681-69.199
						c3.062-5.825,9.097-9.478,15.674-9.478c164.57,0,282.617-69.473,341.377-200.908c3.027-6.777,9.922-11.006,17.373-10.435
						c7.407,0.508,13.706,5.586,15.781,12.715c51.313,176.514,60.034,466.65,61.152,514.937
						c10.547,12.412,19.219,24.893,25.82,37.173c18.232,33.662,17.261,75.278-2.563,108.56
						C1894.073,3312.138,1863.561,3330.209,1830.475,3330.209z M1440.196,2906.025c31.978,81.094,73.433,202.397,95.298,331.973
						c5.586,32.91,30.923,56.812,60.234,56.812h234.746c20.791,0,39.463-11.318,51.221-31.055
						c13.472-22.622,14.17-50.835,1.826-73.633c-6.206-11.533-14.756-23.438-25.444-35.425c-2.822-3.164-4.414-7.231-4.487-11.47
						c-0.054-3.008-5.381-280.435-48.491-467.988c-68.208,113.804-187.378,177.031-341.011,179.888
						C1459.127,2865.102,1450.616,2882.67,1440.196,2906.025z"/>
				</g>
				<g>
					<path style="fill:#371A45;" d="M1474.313,3075.537c-4.839,0-9.663-1.978-13.159-5.859c-6.538-7.261-5.952-18.452,1.313-24.995
						c135.376-121.895,395.317-75.84,406.313-73.818c9.609,1.768,15.967,10.986,14.209,20.596
						c-1.767,9.614-10.976,16.016-20.6,14.219c-2.52-0.459-253.843-44.897-376.24,65.313
						C1482.77,3074.033,1478.531,3075.537,1474.313,3075.537z"/>
				</g>
				<g>
					<path style="fill:#371A45;" d="M1866.694,3159.974c-3.73-1.63-8.633-3.362-13.148-4.831c-4.619-1.518-9.325-2.879-14.07-4.171
						c-9.503-2.531-19.192-4.541-29.004-6.035c-9.823-1.572-19.751-2.299-29.777-2.515c-10.05-0.256-20.072,0.646-30.199,2.071
						l-0.081,0.011c-0.919,0.129-1.77-0.512-1.899-1.431c-0.109-0.771,0.326-1.493,1.01-1.783
						c9.556-4.045,19.521-7.685,29.813-10.146c10.27-2.504,20.793-4.489,31.41-5.576c10.62-1.165,21.349-1.766,32.13-1.767
						c5.388,0.026,10.797,0.141,16.234,0.45c5.546,0.319,10.654,0.677,16.83,1.557l0.438,0.062
						c9.781,1.394,16.581,10.453,15.187,20.235c-1.394,9.781-10.454,16.581-20.236,15.187
						C1869.725,3161.063,1868.118,3160.587,1866.694,3159.974z"/>
				</g>
			</g>
			<g>
				<path style="fill:#FFFFFF;" d="M1783.866,2597.796H1296.45c-37.788,0-68.421-30.633-68.421-68.421v-247.557
					c0-37.788,30.633-68.421,68.421-68.421h487.417c37.788,0,68.421,30.633,68.421,68.421v247.557
					C1852.287,2567.163,1821.654,2597.796,1783.866,2597.796z"/>
			</g>
			<g style="opacity:0.3;">
				<path style="fill:#371A45;" d="M1458.488,2551.257c-45.071,0-81.61-36.538-81.61-81.61v-221.179
					c0-10.612,2.089-20.72,5.774-30.02h-81.424c-45.072,0-81.609,36.538-81.609,81.61v221.179c0,45.072,36.537,81.61,81.609,81.61
					h461.038c34.46,0,63.868-21.389,75.836-51.59H1458.488z"/>
			</g>
			<g>
				<path style="fill:#371A45;" d="M1456.656,2615.498H1309.64c-54.761,0-99.311-44.551-99.311-99.312v-221.177
					c0-54.761,44.551-99.312,99.311-99.312h147.017c9.775,0,17.7,7.925,17.7,17.7s-7.925,17.7-17.7,17.7
					c-35.239,0-63.911,28.672-63.911,63.911v221.177c0,35.239,28.672,63.911,63.911,63.911c9.775,0,17.7,7.925,17.7,17.7
					S1466.432,2615.498,1456.656,2615.498z M1309.64,2231.098c-35.239,0-63.911,28.672-63.911,63.911v221.177
					c0,35.239,28.672,63.911,63.911,63.911h71.065c-14.57-17.285-23.359-39.59-23.359-63.911v-221.177
					c0-24.321,8.789-46.626,23.359-63.911H1309.64z"/>
			</g>
			<g>
				<path style="fill:#371A45;" d="M1783.868,2615.498h-487.417c-47.485,0-86.123-38.638-86.123-86.123v-247.559
					c0-47.485,38.638-86.118,86.123-86.118h487.417c47.485,0,86.118,38.633,86.118,86.118v247.559
					C1869.986,2576.86,1831.354,2615.498,1783.868,2615.498z M1296.451,2231.098c-27.969,0-50.723,22.749-50.723,50.718v247.559
					c0,27.969,22.754,50.723,50.723,50.723h487.417c27.969,0,50.718-22.754,50.718-50.723v-247.559
					c0-27.969-22.749-50.718-50.718-50.718H1296.451z"/>
			</g>
			<g>
				<path style="fill:#FFFFFF;" d="M1241.554,2475.659H944.187c-34.624,0-62.692-28.068-62.692-62.692v-24.17
					c0-34.624,28.068-62.692,62.692-62.692h297.368c34.624,0,62.692,28.068,62.692,62.692v24.17
					C1304.246,2447.591,1276.178,2475.659,1241.554,2475.659z"/>
			</g>
			<g style="opacity:0.3;">
				<path style="fill:#371A45;" d="M1241.554,2475.659H944.187c-34.624,0-62.692-28.068-62.692-62.692v-24.17
					c0-34.624,28.068-62.692,62.692-62.692h297.368c34.624,0,62.692,28.068,62.692,62.692v24.17
					C1304.246,2447.591,1276.178,2475.659,1241.554,2475.659z"/>
			</g>
			<g>
				<path style="fill:#371A45;" d="M1241.554,2493.359H944.186c-44.326,0-80.391-36.064-80.391-80.391v-24.17
					c0-44.331,36.065-80.396,80.391-80.396h297.368c44.326,0,80.391,36.064,80.391,80.396v24.17
					C1321.944,2457.294,1285.88,2493.359,1241.554,2493.359z M944.186,2343.803c-24.81,0-44.99,20.186-44.99,44.995v24.17
					c0,24.81,20.181,44.99,44.99,44.99h297.368c24.81,0,44.99-20.181,44.99-44.99v-24.17c0-24.81-20.181-44.995-44.99-44.995
					H944.186z"/>
			</g>
			<g>
				<path style="fill:#FFFFFF;" d="M910.643,1782.845c-106.766,75.35-151.927,185.391-173.664,303.443
					c-26.11,141.807,13.471,380.809,452.669,267.718c0,0,44.689,102.155,164.838,66.667c120.149-35.488,142.767-184.767,0-275.239
					c-171.161-108.465-375.141-66.725-375.141-66.725"/>
			</g>
			<g style="opacity:0.3;">
				<path style="fill:#371A45;" d="M1394.813,2317.407c-59.54,17.929-95.131-6.093-115.629-33.51
					c-22.636-30.277-60.439-44.813-97.681-38.323c-352.365,61.406-379.079-189.529-379.079-255.215
					c0-27.457,3.642-54.236,10.33-80.151c-29.899,51.059-78.767,135.47-78.767,195.297c0,69.934,50.162,311.128,471.494,200.519
					c0,0,37.759,133.576,153.02,98.866c60.182-18.123,94.781-66.603,94.68-121.38
					C1437.989,2298.486,1418.398,2310.304,1394.813,2317.407z"/>
			</g>
			<g>
				<g>
					<path style="fill:#FFFFFF;" d="M2983.885,1838.628c-13.549-48.043-53.27-106.152-102.204-96.296
						c-71.64,14.429-143.244,29.01-208.52,61.866c-19.051,9.588-31.124,23.027-27.682,44.074l15.546,63.841
						c5.027,29.839,11.118,55.578,20.074,77.465c16.247,39.701,58.936,61.81,101.139,54.133c5.281-0.96,10.658-1.937,15.97-2.903
						c33.211-6.039,62.87,22.841,56.675,56.022c-2.836,15.19-6.774,30.554-9.071,47.385c-4.64,34.014,18.697,67.156,55.456,55.753
						c0.213-0.066,0.426-0.133,0.639-0.202c30.36-9.785,45.088-43.836,33.431-73.528c-9.844-25.076-22.729-50.292-22.265-77.919
						c0.344-20.571,17.18-44.04,36.068-52.196l0.644-0.279c15.534-6.707,27.207-20.147,31.511-36.509
						C2991.74,1919.64,2994.953,1877.871,2983.885,1838.628z"/>
				</g>
				<g>
					<path style="fill:#FFFFFF;" d="M2781.997,1683.676c89.77-67.711,129.872-140.287,70.546-243.013
						c-29.508-51.097-71.862-101.921-130.19-110.829c-56.727-8.664-110.48,24.654-158.203,56.521
						c-39.705,26.512-80.801,54.481-104.591,95.875c-23.789,41.394-24.337,100.346,11.838,131.504l81.321,85.95
						c18.666,40.102,70.378,55.652,113.722,46.826C2709.785,1737.683,2746.683,1710.312,2781.997,1683.676z"/>
				</g>
			</g>
			<g>
				<path style="fill:#A46239;" d="M2664.521,1589.274c-65.816,47.826-122.386,112.872-170.55,178.441
					c44.283,58.71,118.548,96.145,190.631,87.421c11.077-1.341,21.291,6.12,23.42,17.073c0.026,0.133,0.052,0.267,0.078,0.4
					c1.843,9.516-2.896,19.197-11.665,23.327c-85.903,40.458-208.518,17.067-269.09-55.341
					c-139.267,140.413-247.683,310.822-313.824,497.011c-15.031,42.312-61.596,63.922-103.607,48.069
					c-28.371-10.706-54.518-28.869-74.713-51.722c-20.969-23.728-25.474-57.939-11.858-86.528
					c142.422-299.037,384.143-550.01,678.117-702.773C2630.898,1547.037,2648.938,1564.186,2664.521,1589.274z"/>
			</g>
			<g>
				<path style="fill:#371A45;" d="M2386.143,1740.573c-2.755,11.56-10.084,21.609-18.03,30.012
					c-8.074,8.437-17.09,15.491-26.051,22.002c-8.976,6.532-17.988,12.485-26.549,18.826c-8.6,6.367-16.671,12.994-24.365,21.893
					c0.84-11.884,7.22-22.991,14.769-31.971c7.667-9.065,16.658-16.479,25.762-23.075c9.137-6.607,18.447-12.405,27.537-18.314
					C2368.361,1754.023,2377.169,1748.138,2386.143,1740.573z"/>
			</g>
			<g>
				<path style="fill:#371A45;" d="M2589.706,1602.602c-2.816,6.655-7.849,12.276-13.047,17.303
					c-5.254,5.056-11.01,9.471-16.744,13.831c-11.528,8.533-23.824,16.154-34.163,24.608c-10.253,8.743-19.565,18.694-28.136,29.636
					l-26.259,33.436l-3.519,4.155l-3.887,4.268c-2.672,2.761-5.421,5.413-8.257,7.878c-5.673,4.943-11.49,9.453-17.372,13.607
					c-11.838,8.206-23.282,15.946-33.235,24.863c-5.02,4.474-9.075,9.391-13.654,15.009l-13.379,16.523
					c-9.066,10.969-18.065,22.12-28.101,32.374c6.862-12.585,13.864-24.919,20.952-37.316c3.623-6.142,7.321-12.255,11.108-18.352
					c3.622-5.97,8.191-12.404,13.257-17.953c10.06-11.335,22.135-19.82,33.032-28.582c5.499-4.339,10.934-8.527,15.851-13.054
					c2.483-2.242,4.799-4.578,7.021-6.96l3.217-3.671l3.304-4.026c8.978-10.659,17.563-22.053,27.15-32.978
					c9.688-10.783,20.168-21.486,32.634-29.851c12.482-8.521,25.415-14.211,37.836-20.932c6.283-3.205,12.401-6.624,18.323-10.343
					C2579.509,1612.296,2585.211,1608.201,2589.706,1602.602z"/>
			</g>
			<g>
				<path style="fill:#371A45;" d="M1988.065,2260.787c6.708-19.227,20.988-35.054,27.19-51.894
					c1.565-4.236,2.542-8.304,3.158-12.679c0.587-4.366,0.812-9.071,1.198-14.194c0.366-5.097,1.116-10.691,2.793-16.282
					c1.654-5.547,4.443-11.01,7.566-15.6c6.267-9.152,13.932-16.494,21.376-23.146c7.494-6.649,14.767-12.845,21.18-19.501
					c6.246-6.58,11.27-14.477,16.138-23.088c5.044-8.43,9.893-17.653,17.015-24.916c-3.762,9.359-6.122,18.742-9.059,28.41
					c-3.031,9.508-6.91,19.564-13.361,28.286c-12.432,17.335-28.896,29.305-38.657,43.901c-4.948,7.008-7.115,14.21-8.347,23.781
					c-0.71,4.717-1.238,9.912-2.561,15.275c-1.202,5.367-3.335,10.777-5.948,15.521c-5.135,9.678-12.175,17.36-19.056,24.583
					C2001.631,2246.39,1994.63,2253.131,1988.065,2260.787z"/>
			</g>
			<g>
				<path style="fill:#371A45;" d="M2030.154,2333.118c-0.106-20.483,1.809-41.306,10.111-61.376
					c4.076-10.002,10.281-19.567,18.463-27.5c8.514-8.136,18.37-12.629,22.899-18.154c2.349-2.644,3.469-5.284,4.149-9.149
					c0.698-3.813,0.603-8.478,0.599-13.613c0.044-5.14,0.028-10.896,1.55-16.984c1.576-6.066,4.457-11.419,7.766-15.988
					c6.621-9.15,14.675-15.615,21.572-22.597c7.108-6.782,13.164-14.314,14.688-24.685c1.245,5.017,0.825,10.576-0.804,15.748
					c-1.573,5.226-4.319,9.948-7.114,14.387c-5.796,8.778-12.327,16.603-16.682,24.55c-2.076,4.001-3.47,7.95-4.15,11.782
					c-0.522,3.862-0.392,8.321-0.046,13.284c0.298,4.972,0.686,10.489-0.093,16.718c-0.756,6.136-3.627,13.259-8.097,18.172
					c-4.403,4.933-9.277,8.151-13.584,10.982c-2.179,1.392-4.248,2.686-6.132,3.975c-1.885,1.261-3.495,2.723-5.317,4.018
					c-6.765,5.767-12.467,13.008-17.336,21.156C2043.053,2294.336,2037.208,2313.824,2030.154,2333.118z"/>
			</g>
			<g>
				<path style="fill:#371A45;" d="M2758.456,1829.492c8.6,8.005,15.463,17.831,20.752,28.408
					c5.366,10.573,8.962,22.014,11.124,33.686c1.987,11.705,2.517,23.679,1.095,35.435c-1.35,11.734-4.453,23.29-9.824,33.712
					c-0.83,1.611-2.808,2.244-4.419,1.414c-1.206-0.621-1.864-1.887-1.77-3.159l0.004-0.034c0.837-11.154,1.299-21.918,0.952-32.607
					c-0.419-10.67-1.439-21.23-3.444-31.614c-1.832-10.417-4.675-20.626-8.102-30.709c-3.5-10.076-7.792-19.91-12.561-29.941
					l-0.018-0.037c-0.93-1.956-0.099-4.294,1.857-5.224C2755.593,1828.112,2757.314,1828.434,2758.456,1829.492z"/>
			</g>
			<g>
				<path style="fill:#371A45;" d="M2886.832,2219.99c-13.301,0-25.693-4.468-36.016-13.208
					c-17.363-14.707-26.001-39.6-22.539-64.961c1.572-11.528,3.823-22.158,5.996-32.441c1.123-5.322,2.236-10.571,3.213-15.796
					c1.821-9.761-1.211-19.463-8.33-26.611c-7.388-7.427-17.51-10.605-27.783-8.755l-15.957,2.905
					c-50.796,9.258-101.543-18.037-120.698-64.839c-8.657-21.167-15.376-46.978-21.143-81.23
					c-1.626-9.639,4.873-18.77,14.512-20.391c9.697-1.68,18.77,4.878,20.391,14.512c5.322,31.606,11.362,55.025,19.004,73.706
					c12.856,31.411,47.197,49.683,81.592,43.418l15.967-2.905c21.587-3.94,43.711,3.037,59.209,18.608
					c15.225,15.303,21.968,37.012,18.032,58.076c-1.025,5.503-2.192,11.025-3.379,16.626c-2.041,9.663-4.155,19.653-5.557,29.907
					c-1.812,13.281,2.251,26.299,10.347,33.159c5.864,4.961,13.374,6.074,22.334,3.291c9.912-3.193,17.515-9.917,21.855-19.082
					c4.609-9.727,4.966-21.123,0.981-31.27c-1.655-4.224-3.403-8.447-5.151-12.686c-9.233-22.354-18.774-45.464-18.335-71.997
					c0.454-27.1,20.991-57.031,46.748-68.154l0.645-0.278c10.679-4.609,18.486-13.638,21.416-24.766
					c10.913-41.494,11.807-78.975,2.661-111.396c-10.776-38.237-44.199-91.304-81.67-83.75
					c-69.019,13.901-140.381,28.276-204.058,60.327c-19.038,9.575-19.36,18.135-18.174,25.405
					c1.577,9.644-4.961,18.745-14.609,20.322c-9.663,1.606-18.74-4.966-20.322-14.609c-3.037-18.555,0.952-44.502,37.192-62.739
					c67.93-34.189,141.67-49.043,212.979-63.403c63.887-12.925,108.403,58.032,122.734,108.838
					c10.879,38.579,10.039,82.324-2.505,130.015c-5.713,21.719-20.879,39.302-41.611,48.257l-0.645,0.278
					c-12.832,5.537-25.171,23.154-25.391,36.245c-0.317,19.204,7.441,37.998,15.659,57.891c1.831,4.434,3.652,8.853,5.386,13.267
					c7.539,19.199,6.836,40.835-1.938,59.355c-8.569,18.091-23.677,31.401-42.539,37.48l-0.942,0.298
					C2899.752,2218.969,2893.185,2219.99,2886.832,2219.99z"/>
			</g>
			<g>
				<path style="fill:#A46239;" d="M2815.834,1383.092c37.197-16.751,76.094-29.725,115.897-38.665
					c6.24-1.402,12.607,1.905,15.173,7.764c0.031,0.07,0.061,0.14,0.092,0.209c2.641,6.029,0.477,13.021-5.052,16.594
					c-32.155,20.783-62.868,43.807-92.077,68.559"/>
			</g>
			<g>
				<path style="fill:#371A45;" d="M2849.874,1455.253c-5.024,0-10.014-2.129-13.516-6.26c-6.318-7.456-5.39-18.628,2.065-24.946
					c24.107-20.425,48.916-39.414,73.999-56.646c-30.562,8.189-60.513,18.857-89.321,31.826c-8.916,4.023-19.395,0.044-23.403-8.872
					c-4.014-8.911-0.039-19.39,8.872-23.403c38.228-17.212,78.359-30.601,119.282-39.795c14.453-3.228,29.282,4.297,35.264,17.93
					c6.226,14.219,1.328,30.435-11.563,38.77c-30.571,19.756-60.938,42.363-90.249,67.202
					C2857.979,1453.876,2853.917,1455.253,2849.874,1455.253z"/>
			</g>
			<g>
				<path style="fill:#371A45;" d="M2452.579,1483.536c19.231-9.174,40.444-11.082,59.938-7.388
					c19.504,3.697,37.833,13.151,51.295,27.528c4.099,4.377,3.873,11.248-0.504,15.347c-4.014,3.758-10.122,3.881-14.27,0.502
					l-0.161-0.133c-11.334-9.215-25.769-14.24-40.062-14.946c-14.301-0.745-28.472,2.91-39.271,10.157
					c-8.148,5.467-19.185,3.294-24.652-4.854c-5.468-8.148-3.293-19.185,4.854-24.652c0.701-0.469,1.421-0.883,2.158-1.241
					L2452.579,1483.536z"/>
			</g>
			<g>
				<path style="fill:#371A45;" d="M2642.247,1766.596c-42.065,0.005-86.465-18.398-105.571-59.443
					c-4.126-8.862-0.283-19.39,8.574-23.516c8.867-4.121,19.395-0.288,23.516,8.574c15.503,33.306,60.088,43.906,94.146,36.953
					c40.239-8.188,76.465-35.513,108.428-59.619c95.464-72.002,114.551-135.752,65.879-220.029
					c-35.401-61.299-74.947-95.679-117.534-102.188c-49.063-7.49-96.899,21.157-145.703,53.745
					c-36.025,24.053-76.855,51.308-99.072,89.975c-19.341,33.652-21.621,83.726,8.042,109.277
					c7.402,6.377,8.237,17.554,1.855,24.961c-6.367,7.397-17.544,8.247-24.961,1.855c-45.176-38.911-41.768-108.247-15.63-153.73
					c26.357-45.859,70.85-75.566,110.107-101.777c52.642-35.156,109.229-68.696,170.703-59.297
					c53.74,8.208,101.802,48.408,142.847,119.473c75.454,130.659-6.792,214.385-75.215,265.996
					c-34.966,26.367-74.595,56.255-122.686,66.045C2661.061,1765.668,2651.71,1766.596,2642.247,1766.596z"/>
			</g>
			<g>
				<path style="fill:#371A45;" d="M2038.321,2408.613c-11.665,0-23.374-2.124-34.658-6.382
					c-31.152-11.753-59.414-31.309-81.724-56.558c-25.654-29.028-31.377-70.581-14.58-105.854
					c144.653-303.721,388.257-556.182,685.942-710.869c2.949-1.533,6.284-2.202,9.585-1.938c40.869,3.31,62.441,30.019,76.67,52.92
					c4.897,7.881,2.876,18.203-4.629,23.657c-52.827,38.389-104.8,92.017-158.599,163.701
					c42.906,50.103,106.826,77.441,166.143,70.278c20.181-2.466,39.048,11.294,42.925,31.27c3.481,17.988-5.361,35.547-21.416,43.11
					c-88.882,41.855-208.633,20.947-276.963-45.708c-131.86,136.685-234.316,301.348-296.816,477.29
					c-8.877,24.985-26.963,44.863-50.928,55.981C2066.217,2405.566,2052.301,2408.608,2038.321,2408.613z M2604.815,1562.866
					c-288.716,151.377-524.912,396.992-665.498,692.173c-10.684,22.441-7.095,48.818,9.146,67.197
					c18.242,20.645,42.285,37.29,67.695,46.88c15.835,5.972,32.964,5.361,48.223-1.714c15.269-7.085,26.797-19.771,32.461-35.718
					c66.265-186.523,176.201-360.649,317.935-503.55c3.501-3.54,8.311-5.532,13.315-5.22c4.976,0.21,9.634,2.505,12.827,6.323
					c54.487,65.132,168.052,88.32,247.979,50.688c1.377-0.649,2.144-2.314,1.826-3.96c-0.01-0.044-0.093-0.488-0.103-0.532
					c-0.327-1.68-2.026-3.008-3.896-2.725c-75.591,9.097-156.763-27.886-206.885-94.336c-4.707-6.245-4.761-14.834-0.132-21.138
					c54.224-73.813,106.885-130.215,160.537-171.855C2629.547,1572.006,2618.517,1565.078,2604.815,1562.866z"/>
			</g>
			<g>
				<path style="fill:#371A45;" d="M1305.958,2445.893c-70.796,0.005-109.805-47.368-124.99-71.304
					c-187.119,48.096-321.318,35.435-398.975-37.7c-89.067-83.882-70.244-215.747-62.354-254.16
					c20.894-101.689,60.317-229.312,180.796-314.341c7.979-5.645,19.023-3.74,24.663,4.253c5.64,7.983,3.735,19.028-4.253,24.663
					c-110.332,77.871-146.953,197.246-166.528,292.544c-6.963,33.882-23.779,149.956,51.943,221.274
					c69.941,65.864,197.388,74.551,378.794,25.796c8.457-2.29,17.295,1.978,20.811,9.995c1.567,3.511,40.415,87.256,143.608,56.787
					c47.173-13.936,78.965-48.223,85.044-91.724c7.627-54.575-25.835-111.245-89.502-151.592
					c-162.847-103.198-360.161-64.741-362.134-64.331c-9.556,1.943-18.916-4.238-20.869-13.813
					c-1.953-9.57,4.214-18.911,13.784-20.869c8.613-1.768,212.988-41.89,388.164,69.111
					c75.732,47.993,115.215,117.676,105.615,186.392c-8.057,57.646-49.204,102.793-110.073,120.771
					C1339.933,2443.427,1322.115,2445.893,1305.958,2445.893z"/>
			</g>
			<g>
				<path style="fill:#FFFFFF;" d="M2337.281,1839.568c59.683,45.229,63.843,140.248,9.293,212.232
					c-54.55,71.983-147.155,93.672-206.837,48.444c-59.683-45.229-38.89-132.445,15.66-204.428
					C2209.947,1823.831,2277.598,1794.339,2337.281,1839.568z"/>
			</g>
			<g>
				<path style="fill:#371A45;" d="M2212.032,2141.425c-29.907,0.005-58.794-8.745-82.983-27.075
					c-33.13-25.107-47.612-62.622-41.88-108.481c4.761-38.091,23.979-80.972,54.121-120.742
					c65.195-86.03,142.456-108.335,206.68-59.663c33.14,25.112,52.485,63.97,54.478,109.414
					c1.934,44.194-12.9,89.517-41.768,127.612C2321.993,2113.54,2265.406,2141.425,2212.032,2141.425z M2277.252,1835.859
					c-47.798,0-89.087,46.021-107.749,70.645c-26.445,34.893-43.213,71.743-47.212,103.755
					c-4.131,33.071,5.332,58.599,28.135,75.879c51.816,39.263,133.472,19.067,182.041-45.024
					c23.896-31.538,36.191-68.716,34.614-104.688c-1.519-34.726-15.898-64.116-40.488-82.749l0,0
					C2309.825,1840.966,2293.175,1835.859,2277.252,1835.859z"/>
			</g>
			<g>
				<path style="fill:#371A45;" d="M966.92,2371.713c-6.763,0-13.213-3.896-16.162-10.464
					c-22.71-50.669-28.418-108.389-16.06-162.529s42.539-103.672,84.985-139.463c7.476-6.299,18.643-5.347,24.941,2.119
					c6.299,7.476,5.351,18.638-2.119,24.941c-36.606,30.869-62.637,73.584-73.296,120.283
					c-10.659,46.689-5.737,96.47,13.853,140.166c3.994,8.921,0.005,19.395-8.911,23.394
					C971.798,2371.21,969.342,2371.713,966.92,2371.713z"/>
			</g>
			<g>
				<path style="fill:#371A45;" d="M975.955,2065.225c7.185-26.875,21.86-50.354,40.592-68.457
					c18.737-18.115,41.804-31.022,66.085-36.631c1.478-0.342,2.953,0.58,3.295,2.058c0.298,1.291-0.377,2.584-1.534,3.117
					c-43.413,20.029-71.538,63.944-73.556,105.932c-0.472,9.834-8.828,17.424-18.663,16.952
					c-9.834-0.472-17.424-8.828-16.952-18.663c0.061-1.26,0.252-2.483,0.557-3.657L975.955,2065.225z"/>
			</g>
			<g>
				<path style="fill:#371A45;" d="M1445.182,2260.029c-7.246,0-14.048-4.487-16.65-11.699c-3.315-9.194,1.45-19.341,10.645-22.656
					c14.702-5.298,31.85-12.813,34.019-23.96c1.06-5.454-1.934-12.666-7.456-17.959c-5.679-5.444-13.794-9.673-26.318-13.711
					c-25.869-8.345-53.809-11.167-80.845-8.169c-9.702,1.069-18.462-5.933-19.541-15.645c-1.074-9.712,5.928-18.462,15.645-19.541
					c31.919-3.53,65.005-0.2,95.605,9.663c12.046,3.887,27.466,9.883,39.951,21.851c14.292,13.691,21.074,32.959,17.705,50.273
					c-6.284,32.295-41.651,45.049-56.753,50.498C1449.205,2259.687,1447.174,2260.029,1445.182,2260.029z"/>
			</g>
			<g>
				<path style="fill:#371A45;" d="M1658.126,2615.498c-9.775,0-17.7-7.925-17.7-17.7v-160.591
					c0-35.947,29.248-65.195,65.195-65.195c16.431,0,29.8-13.369,29.8-29.8v-128.813c0-9.775,7.925-17.7,17.7-17.7
					s17.7,7.925,17.7,17.7v128.813c0,35.952-29.248,65.2-65.2,65.2c-16.431,0-29.795,13.364-29.795,29.795v160.591
					C1675.826,2607.573,1667.901,2615.498,1658.126,2615.498z"/>
			</g>
			<g>
				<path style="fill:#371A45;" d="M1983.355,1832.319c-128.149,0-245.483-22.769-333.476-65.078
					c-8.809-4.238-12.515-14.814-8.281-23.623c4.238-8.799,14.8-12.505,23.623-8.281c91.06,43.784,216.284,65.469,352.7,61.021
					c32.334-1.05,62.681-12.769,85.454-32.998c22.144-19.668,50.449-33.198,79.697-38.101c30.732-5.146,56.436-16.343,76.392-33.276
					c7.788-6.602,15.503-11.904,23.594-16.211c26.714-14.209,65.889-18.13,93.179,5.142c7.437,6.343,8.325,17.515,1.982,24.951
					c-6.338,7.437-17.5,8.335-24.951,1.982c-14.546-12.412-37.983-9.116-53.584-0.825c-5.825,3.101-11.494,7.012-17.324,11.958
					c-24.888,21.113-56.328,34.971-93.438,41.191c-22.774,3.818-44.805,14.351-62.041,29.653
					c-28.94,25.708-67.231,40.596-107.808,41.914C2007.086,1832.128,1995.172,1832.319,1983.355,1832.319z"/>
			</g>
			<g>
				<path style="fill:#371A45;" d="M1891.71,2187.216c-30.942,0-59.766-4.907-82.715-9.766
					c-9.565-2.021-15.679-11.416-13.652-20.977c2.026-9.57,11.426-15.679,20.977-13.652c63.13,13.359,108.936,12.075,148.53-4.17
					c9.028-3.716,19.38,0.605,23.091,9.653c3.711,9.043-0.61,19.385-9.653,23.091
					C1949.576,2183.178,1919.772,2187.216,1891.71,2187.216z"/>
			</g>
			<g>
				<path style="fill:#371A45;" d="M1984.454,2150.195c-6.699,0-13.11-3.828-16.089-10.313
					c-47.51-103.359-52.944-224.126-14.912-331.333c3.267-9.209,13.384-14.028,22.598-10.762
					c9.209,3.267,14.028,13.384,10.762,22.598c-34.976,98.594-29.976,209.658,13.711,304.712c4.082,8.882,0.195,19.39-8.687,23.472
					C1989.439,2149.672,1986.93,2150.195,1984.454,2150.195z"/>
			</g>
			<g style="opacity:0.3;">
				<g>
					<path style="fill:#000072;" d="M1000.868,2068.716c0.469-3.161,1.076-6.294,1.797-9.396c-0.904-0.113-1.807-0.225-2.711-0.338
						L1000.868,2068.716z"/>
				</g>
				<g style="opacity:0.3;">
					<path style="fill:#371A45;" d="M1101.659,1962.073c-47.878,9.884-87.94,49.782-98.994,97.247
						c30.284,3.782,60.568,7.565,90.852,11.347C1079.368,2035.815,1082.471,1994.426,1101.659,1962.073z"/>
				</g>
			</g>
			<g>
				<g style="opacity:0.3;">
					<path style="fill:#000072;" d="M1048.712,1867.342c-27.235-16.167-54.294-32.247-83.449-43.519
						C991.442,1840.845,1019.496,1855.299,1048.712,1867.342z"/>
				</g>
				<g style="opacity:0.3;">
					<path style="fill:#371A45;" d="M1666.995,1755.167c-98.969,91.954-230.791,147.79-365.698,154.9
						c-84.537,4.455-172.994-9.917-252.585-42.725c29.832,17.708,59.872,35.52,93.111,47.237
						c68.79,24.249,141.81,36.665,214.775,35.693c151.4-2.018,301.334-61.599,412.823-164.048
						C1735.279,1775.871,1701.138,1765.519,1666.995,1755.167z"/>
				</g>
			</g>
			<g style="opacity:0.3;">
				<path style="fill:#371A45;" d="M1441.148,2231.891c17.94,30.615,17.025,61.741,5.999,95.47
					c-11.024,33.728-37.017,62.257-69.577,76.365l7.757,52.052c57.172,10.544,119.059-29.302,133.124-85.712
					C1532.514,2313.658,1496.578,2249.422,1441.148,2231.891z"/>
			</g>
			<g style="opacity:0.3;">
				<path style="fill:#371A45;" d="M1829.254,2641.884c-7.494,68.567-36.799,134.585-82.626,186.136
					c-16.333,18.373-34.737,34.878-54.704,49.212c-61.892,44.432-90.467,122.064-69.847,195.411
					c2.633,9.365,5.134,18.779,7.506,28.252c8.86,35.39,45.839,55.6,80.337,43.731c18.829-6.478,37.786-11.737,55.889-13.554
					c39.864-4.003,82.277,2.721,114.345,26.737c-20.348,0.501-47.861,1.769-66.82,9.173c-27.661,10.803-51.227,39.277-33.554,73.312
					c5.609,10.801,14.612,19.567,25.286,25.412c28.183,15.433,60.627,12.208,91.569,8.819c-8.86,17.162-25.132,26.286-42.791,33.836
					c-3.393,1.451-9.182,2.657-12.872,2.657l-268.342,0c-23.783-4.281-43.836-27.505-47.984-51.311
					c-21.1-121.095-46.484-243.838-109.411-349.428c14.073-26.136,19.693-46.595,33.767-72.732
					C1600.6,2851.707,1757.916,2776.396,1829.254,2641.884z"/>
			</g>
			<g style="opacity:0.3;">
				<path style="fill:#371A45;" d="M1834.701,2588.736c-68.971,87.401-166.815,151.619-274.441,180.123
					c-107.626,28.504-224.43,21.134-327.62-20.672c-0.003,0.004,0,0-0.004,0.004c44.458,67.859,60.243,150.863,39.339,229.215
					c-10.796,40.465-19.298,81.508-25.767,123.183c-4.917,31.675-37.1,51.342-67.531,41.269
					c-68.105-22.546-139.939-27.381-210.987-9.896c25.98,4.569,48.07,9.868,70.507,25.041c12.68,8.575,22.822,20.764,27.381,35.377
					c11.702,37.507-17.855,64.94-48.883,76.646c-39.505,14.903-85.689,10.865-122.008-10.668
					c15.747,27.933,38.509,48.108,68.667,59.007c1.891,0.683,1.119-3.331,3.129-3.331h260.103c38.333,0,73.052-22.826,88.073-58.093
					c58.033-136.249,75.906-291.473,151.344-419.04C1621.91,2841.011,1778.753,2734.317,1834.701,2588.736z"/>
			</g>
			<g style="opacity:0.3;">
				<path style="fill:#371A45;" d="M2269.262,1814.698c29.396,1.531,52.992,28.531,58.201,57.532
					c11.924,66.5-35.593,137.117-89.982,171.673c-36.814,23.39-103.884,52.026-122.927-5.399
					c15.505,46.755,62.41,77.248,111.351,71.658c48.94-5.591,91.628-38.44,119.508-79.049
					c29.969-43.653,45.197-100.432,28.112-150.55C2356.439,1830.444,2320.484,1801.279,2269.262,1814.698z"/>
			</g>
			<g style="opacity:0.3;">
				<path style="fill:#371A45;" d="M2653.623,1831.23c15.648-25.216,52.554-31.314,79.076-17.999
					c26.522,13.315,43.03,41.536,49.423,70.516c1.127,5.109,1.984,10.254,2.617,15.424c3.688,30.091,24.059,54.538,51.24,67.965
					c1.241,0.613,2.427,1.271,3.546,1.972c15.677,9.813,24.329,28.244,26.656,46.592c2.327,18.348-0.83,36.902-4.085,55.108
					c-2.038,11.4-4.125,23.044-2.391,34.494c1.734,11.45,8.03,22.882,18.585,27.646c10.172,4.59,23.204,1.709,30.494-6.74
					c7.29-8.45,8.228-21.763,2.196-31.152c10.202,30.887,29.89,57.284,4.278,90.863c-10.956,14.364-30.719,20.214-46.798,11.977
					c-28.968-14.839-20.669-59.577-13.131-84.719c3.88-12.939,3.763-26.952-1.466-39.407c-15.478-36.865-53.739-25.689-85.281-28.45
					c-45.284-3.963-82.216-41.027-99.563-83.045S2654.875,1876.67,2653.623,1831.23z"/>
			</g>
			<g style="opacity:0.3;">
				<g>
					<path style="fill:#000072;" d="M2460.447,1617.773l-0.761-1.927c-3.178,2.361-6.332,4.754-9.413,7.242
						C2453.664,1621.316,2457.055,1619.544,2460.447,1617.773z"/>
				</g>
				<g>
					<path style="fill:#371A45;" d="M2861.684,1464.632c4.326,11.338,4.377,24.46,1.127,36.308
						c-4.479,16.326-14.355,30.619-24.986,43.794c-32.028,39.693-70.433,74.935-115.989,97.871
						c5.381-46.742-18.815-93.909-55.648-123.187c-36.833-29.277-84.626-42.226-131.648-43.882
						c-30.045-1.059-62.222,3.009-85.271,22.312c-23.05,19.304-31.681,57.807-11.155,79.773l18.746,47.458
						c26.594-19.764,56.481-35.093,88.084-45.051c11.734-3.697,25.57-6.35,35.49,0.924c9.612,7.048,11.486,21.269,7.492,32.499
						c-3.994,11.23-12.556,20.141-20.991,28.563c-71.549,71.436-145.985,139.04-231.786,192.524
						c13.733,17.972,29.08,31.998,42.811,49.969c19.848-16.447,39.698-21.102,59.546-37.549
						c48.669,50.734,120.755,78.03,190.821,72.257c16.113-1.328,32.476-4.448,46.359-12.733
						c13.883-8.284,24.484-17.296,25.68-33.419c-81.501,9.537-150.544-40.385-210.76-96.131c-1.469-1.361-2.938-2.721-4.408-4.082
						c23.344-22.05,50.205-38.665,73.551-60.716c32.368,41.121,89.335,73.689,133.67,45.887
						c55.164-34.591,111.816-70.566,149.373-123.755C2876.685,1584.85,2888.484,1517.779,2861.684,1464.632z"/>
				</g>
				<g>
					<path style="fill:#000072;" d="M2864.509,1455.398c-1.635-4.285-3.829-8.335-6.762-11.935
						C2860.251,1447.344,2862.461,1451.341,2864.509,1455.398z"/>
				</g>
			</g>
			<g style="opacity:0.3;">
				<path style="fill:#371A45;" d="M1748.16,2000.415c25.371,52.539,47.331,102.835,72.7,155.374
					c44.694,16.501,93.974,15.269,139.614,1.601l143.186-212.003C2010.981,2032.967,1862.979,2055.876,1748.16,2000.415z"/>
			</g>
			<g style="opacity:0.3;">
				<path style="fill:#371A45;" d="M2125.616,2067.37c-21.188-24.394-32.495-57.133-30.875-89.403l-49.881,54.064
					c-6.362,40.79,4.396,83.588,27.767,117.516c17.222,25.003,25.1,55.521,18.716,85.203c-0.479,2.227-1.017,4.47-1.647,6.723
					c-9.559,34.155-45.536,58.799-80.838,55.374c-35.3-3.425-65.87-34.527-68.684-69.882
					c-19.133,17.815-24.448,46.742-13.714,70.579c13.4,29.757,41.182,50.744,64.352,72.512c10.516,9.88,23.184,17.452,37.267,20.594
					c44.22,9.867,64.231-27.495,78.608-59.943c32.012-72.251,64.025-144.502,96.039-216.753
					C2170.546,2111.041,2146.804,2091.764,2125.616,2067.37z"/>
			</g>
			<g>
				<g>
					<path style="fill:#22A7F0;" d="M1487.547,2402.748c0.866,30.214,21.421,54.082,45.94,53.379l41.422-1.188l-3.134-109.302
						l-41.422,1.188C1505.834,2347.528,1486.682,2372.575,1487.547,2402.748z"/>
				</g>
				<g style="opacity:0.7;">
					<path style="fill:#FFFFFF;" d="M1489.769,2383.619c7.807-10.971,19.171-18.065,32.081-18.435l41.394-1.187l2.615,91.191
						l9.058-0.26l-3.134-109.306l-41.436,1.188C1511.289,2347.357,1495.443,2362.66,1489.769,2383.619z"/>
				</g>
				<g>
					<path style="fill:#1C7AEA;" d="M1487.528,2402.757c0.866,30.206,21.444,54.063,45.953,53.36l41.436-1.188l-3.134-109.306
						l-22.296,0.639l1.537,53.608l-41.395,1.187c-7.869,0.226-15.36-2.103-21.881-6.346
						C1487.537,2397.343,1487.45,2400.011,1487.528,2402.757z"/>
				</g>
				<g>
					<path style="fill:#371A45;" d="M1532.443,2467.099c-29.902,0-54.824-28.398-55.85-64.033c0-0.005,0-0.005,0-0.005
						c-1.035-36.172,22.939-66.313,53.447-67.188l41.421-1.187c5.986-0.342,11.094,4.59,11.265,10.64l3.135,109.302
						c0.083,2.905-0.991,5.723-2.983,7.837c-1.997,2.109-4.751,3.345-7.656,3.428l-41.421,1.187
						C1533.351,2467.094,1532.897,2467.099,1532.443,2467.099z M1498.497,2402.431c0.693,24.102,16.426,43.096,34.678,42.744
						l30.464-0.874l-2.505-87.397l-30.469,0.874c-18.428,0.527-32.856,20.562-32.168,44.658V2402.431z"/>
				</g>
				<g>
					
						<ellipse transform="matrix(0.9996 -0.0287 0.0287 0.9996 -68.151 46.0813)" style="fill:#22A7F0;" cx="1573.342" cy="2400.299" rx="44.351" ry="54.677"/>
				</g>
				<g style="opacity:0.7;">
					<path style="fill:#FFFFFF;" d="M1529.005,2401.568c0.094,3.279,0.433,6.51,0.974,9.652
						c2.957-25.639,20.515-45.585,42.36-46.212c21.804-0.625,40.476,18.282,44.897,43.71c0.36-3.169,0.514-6.414,0.419-9.692
						c-0.865-30.165-21.403-54.064-45.871-53.362C1547.275,2346.366,1528.14,2371.403,1529.005,2401.568z"/>
				</g>
				<g>
					<path style="fill:#1C7AEA;" d="M1529.005,2401.568c0.866,30.206,21.404,54.105,45.913,53.402
						c24.468-0.701,43.603-25.738,42.737-55.944c-0.053-1.844-0.187-3.645-0.401-5.403c-6.745,17.954-21.356,30.556-38.61,31.051
						c-23.033,0.66-42.547-20.397-45.511-47.958C1530.23,2384.223,1528.75,2392.674,1529.005,2401.568z"/>
				</g>
				<g>
					<path style="fill:#371A45;" d="M1573.873,2465.927c-29.888,0-54.795-28.403-55.815-64.043
						c-1.035-36.177,22.92-66.318,53.403-67.192c0.449-0.015,0.903-0.02,1.353-0.02c29.888,0,54.79,28.398,55.815,64.038
						c1.035,36.182-22.92,66.323-53.408,67.197C1574.772,2465.922,1574.322,2465.927,1573.873,2465.927z M1572.828,2356.586
						c-0.244,0-0.493,0.005-0.742,0.01c-18.403,0.527-32.813,20.566-32.124,44.663c0.684,23.77,15.815,42.754,33.896,42.754
						c0.244,0,0.488-0.005,0.737-0.01c18.403-0.527,32.817-20.566,32.129-44.663
						C1606.041,2375.571,1590.909,2356.586,1572.828,2356.586z"/>
				</g>
			</g>
			<g>
				<g>
					<path style="fill:#FFFFFF;" d="M1910.572,1452.954c-28.515,100.073-82.503,193.565-160.291,270.345
						c-15.87,15.649-32.659,30.591-50.438,44.738c-8.629,6.909-17.573,13.62-26.706,20.213
						c-27.628,19.723-56.317,36.901-85.834,51.594c-25.411,12.726-51.463,23.563-77.863,32.61
						c-31.878,10.942-64.362,19.188-97.097,24.874c-11.946,2.034-23.909,3.75-35.888,5.151
						c-219.33,25.165-445.517-63.97-584.098-252.692c-204.201-277.963-140.879-666.641,141.321-868.149
						c54.379-38.772,112.933-67.893,173.482-87.418c7.055-2.349,14.207-4.504,21.393-6.508c19.185-5.489,38.524-10.05,57.965-13.675
						c44.968-8.37,90.506-11.795,135.709-10.451c45.191,1.294,90.162,7.386,133.954,18.112c13.927,3.402,27.738,7.257,41.446,11.615
						c20.536,6.541,40.751,14.061,60.626,22.723c99.057,42.843,188.201,111.449,256.205,204.064
						C1931.932,1079.991,1960.85,1276.491,1910.572,1452.954z"/>
					<path style="fill:#371A45;" d="M1303.434,1908.208c-201.348,0-392.857-94.805-512.324-257.5
						c-98.613-134.229-138.496-298.359-112.305-462.163c26.396-165.112,116.597-310.068,253.97-408.169
						c53.613-38.227,112.124-67.71,173.906-87.627c6.729-2.246,13.75-4.38,21.46-6.528c19.17-5.483,38.716-10.098,58.096-13.706
						c44.648-8.315,90.425-11.851,136.035-10.479c45.21,1.294,90.386,7.402,134.282,18.154c14.15,3.462,28.125,7.378,41.543,11.646
						c20.972,6.675,41.421,14.341,60.776,22.778c102.227,44.214,191.04,114.956,256.836,204.57
						c113.823,154.922,148.94,349.629,96.357,534.194c-29.155,102.314-84.722,196.035-160.698,271.025
						c-16.089,15.869-33.096,30.957-50.557,44.849c-7.959,6.372-16.714,12.998-26.768,20.259
						c-27.305,19.492-56.255,36.89-86.045,51.724c-24.941,12.485-51.206,23.486-78.057,32.69
						c-31.421,10.786-64.17,19.175-97.334,24.932c-11.86,2.021-23.965,3.76-35.972,5.166
						C1352.164,1906.831,1327.726,1908.208,1303.434,1908.208z M1303.189,664.858c-39.087,0-78.144,3.589-116.387,10.703
						c-19.282,3.594-38.735,8.184-57.822,13.647c-7.666,2.134-14.639,4.253-21.328,6.484
						c-61.494,19.829-119.722,49.17-173.071,87.212c-136.699,97.607-226.445,241.841-252.715,406.133
						c-26.055,162.974,13.628,326.279,111.743,459.834c133.227,181.431,356.504,278.037,582.671,252.065
						c11.953-1.396,23.999-3.125,35.806-5.137c32.993-5.732,65.581-14.077,96.851-24.814c26.719-9.155,52.852-20.103,77.676-32.529
						c29.648-14.761,58.457-32.075,85.62-51.47c10.005-7.222,18.721-13.818,26.641-20.161
						c17.378-13.828,34.307-28.843,50.318-44.629c75.591-74.614,130.879-167.866,159.888-269.668l1.494,0.425l-1.494-0.425
						c52.324-183.638,17.378-377.363-95.869-531.509c-65.474-89.17-153.848-159.561-255.571-203.56
						c-19.263-8.398-39.609-16.021-60.479-22.666c-13.35-4.248-27.261-8.145-41.343-11.587
						c-43.682-10.703-88.643-16.777-133.633-18.066C1315.855,664.951,1309.522,664.858,1303.189,664.858z"/>
				</g>
				<g>
					<path style="fill:#E8E8E8;" d="M792.357,1649.772c138.565,188.748,364.785,277.888,584.108,252.69
						c11.983-1.385,23.938-3.097,35.865-5.14c32.747-5.673,65.22-13.942,97.1-24.859c26.398-9.069,52.466-19.892,77.859-32.606
						c29.539-14.689,58.212-31.867,85.865-51.596c9.102-6.622,18.05-13.308,26.703-20.204c17.778-14.161,34.539-29.133,50.422-44.77
						c77.787-76.781,131.797-170.25,160.3-270.353c15.674-54.971,23.66-111.93,23.664-169.099
						c-29.417,94.893-81.984,183.324-156.191,256.579c-15.85,15.682-32.644,30.608-50.422,44.77
						c-8.613,6.902-17.561,13.589-26.703,20.204c-27.652,19.729-56.325,36.906-85.824,51.603
						c-25.433,12.706-51.461,23.536-77.859,32.605c-31.88,10.916-64.393,19.179-97.1,24.86c-11.967,2.034-23.922,3.748-35.905,5.133
						c-219.323,25.198-445.503-63.936-584.108-252.69c-80.886-110.089-119.75-237.55-119.714-363.837
						C644.505,1283.061,671.817,1485.716,792.357,1649.772z"/>
				</g>
				<g>
					<path style="fill:#371A45;" d="M1303.448,1918.608c-204.653,0-399.277-96.357-520.723-261.743
						c-100.269-136.489-140.825-303.389-114.19-469.961c26.841-167.886,118.535-315.264,258.198-414.99
						c54.487-38.852,113.955-68.818,176.758-89.067c6.792-2.266,13.979-4.453,21.855-6.646
						c19.414-5.552,39.287-10.244,58.984-13.911c45.386-8.447,91.924-11.997,138.252-10.649
						c45.928,1.318,91.836,7.524,136.44,18.452c14.375,3.511,28.584,7.495,42.227,11.831c21.313,6.787,42.095,14.575,61.777,23.154
						c103.892,44.937,194.175,116.851,261.064,207.949c115.737,157.529,151.45,355.518,97.974,543.203l0,0
						c-29.644,104.033-86.143,199.331-163.394,275.576c-16.352,16.128-33.638,31.465-51.387,45.581
						c-8.066,6.465-16.958,13.193-27.153,20.552c-27.798,19.844-57.217,37.529-87.5,52.603
						c-25.332,12.686-52.031,23.867-79.316,33.223c-31.938,10.962-65.225,19.487-98.926,25.342
						c-12.075,2.056-24.356,3.818-36.548,5.244C1352.989,1917.202,1328.126,1918.608,1303.448,1918.608z M1303.194,675.258
						c-38.457,0-76.875,3.53-114.487,10.527c-18.96,3.535-38.091,8.047-56.865,13.418c-7.568,2.109-14.38,4.18-20.899,6.357
						c-60.576,19.531-117.847,48.389-170.327,85.81c-134.404,95.977-222.651,237.788-248.477,399.307
						c-25.615,160.205,13.398,320.742,109.854,452.036c131.025,178.433,350.654,273.398,573.101,247.891
						c11.748-1.372,23.618-3.076,35.244-5.059c32.422-5.63,64.473-13.838,95.22-24.395c26.289-9.009,51.992-19.775,76.396-31.997
						c29.185-14.526,57.515-31.558,84.238-50.63c9.814-7.09,18.398-13.584,26.182-19.819c17.114-13.618,33.765-28.384,49.512-43.916
						c74.316-73.354,128.672-165.029,157.193-265.112c51.436-180.522,17.08-370.967-94.253-522.5
						c-64.38-87.686-151.284-156.904-251.318-200.171c-18.965-8.267-38.975-15.767-59.507-22.305
						c-13.12-4.175-26.802-8.008-40.654-11.392c-42.974-10.527-87.202-16.509-131.46-17.773
						C1315.66,675.351,1309.42,675.258,1303.194,675.258z M1910.572,1452.954h0.049H1910.572z"/>
				</g>
				<g>
					<path style="fill:#371A45;" d="M1303.453,1922.075c-205.752,0-401.421-96.88-523.521-263.159
						c-100.825-137.241-141.602-305.068-114.819-472.558c26.987-168.809,119.185-316.997,259.604-417.266
						c54.78-39.063,114.57-69.185,177.71-89.541c6.816-2.275,14.057-4.477,21.992-6.689c19.492-5.576,39.473-10.288,59.277-13.979
						c45.625-8.496,92.412-12.095,138.989-10.703c46.167,1.318,92.324,7.559,137.163,18.545c14.448,3.53,28.735,7.534,42.451,11.899
						c21.426,6.821,42.324,14.653,62.114,23.276c104.443,45.181,195.22,117.48,262.471,209.077
						c116.377,158.398,152.285,357.48,98.516,546.201l0,0c-29.809,104.614-86.621,200.43-164.292,277.095
						c-16.441,16.216-33.823,31.636-51.665,45.83c-8.106,6.489-17.041,13.257-27.28,20.649
						c-27.964,19.961-57.544,37.739-87.988,52.896c-25.464,12.749-52.3,23.994-79.736,33.394
						c-32.109,11.025-65.571,19.595-99.458,25.479c-12.143,2.07-24.487,3.843-36.733,5.273
						C1353.258,1920.664,1328.263,1922.075,1303.453,1922.075z M1303.194,678.725c-38.242,0-76.45,3.511-113.853,10.469
						c-18.853,3.516-37.876,8.003-56.543,13.345c-7.539,2.1-14.292,4.155-20.762,6.309
						c-60.269,19.434-117.217,48.135-169.409,85.347c-133.643,95.43-221.392,236.435-247.065,397.031
						c-25.469,159.282,13.32,318.896,109.224,449.434c130.288,177.437,348.686,271.88,569.912,246.504
						c11.685-1.367,23.486-3.062,35.059-5.034c32.231-5.596,64.102-13.76,94.678-24.258c26.143-8.955,51.699-19.663,75.967-31.812
						c29.028-14.453,57.202-31.387,83.775-50.356c9.756-7.041,18.291-13.506,26.03-19.702c17.031-13.55,33.584-28.232,49.248-43.677
						c73.887-72.935,127.935-164.087,156.289-263.594l0,0c51.138-179.487,16.983-368.838-93.711-519.497
						c-64.019-87.197-150.435-156.025-249.902-199.048c-18.862-8.223-38.76-15.679-59.18-22.178
						c-13.047-4.15-26.65-7.964-40.43-11.333c-42.739-10.469-86.719-16.416-130.732-17.676
						C1315.592,678.818,1309.391,678.725,1303.194,678.725z M1910.572,1452.954h0.049H1910.572z"/>
				</g>
				<g>
					<path style="fill:#371A45;" d="M1847.272,1599.588c-303.422,328.891-834.349,261.803-958.608-160.733
						c-84.538-287.469,135.875-591.267,421.31-653.88c207.744-45.57,430.699-0.517,590.288,297.832
						c0,0,49.94,142.846,32.042,249.408c-17.899,106.562-53.552,207.24-53.552,207.24L1847.272,1599.588z"/>
				</g>
				<g>
					<path style="fill:#220F2D;" d="M888.682,1438.854c124.245,422.528,655.183,489.607,958.597,160.749l6.369-12.197
						c-380.559,158.584-829.48,13.164-963.179-411.737C865.525,1259.88,862.608,1350.138,888.682,1438.854z"/>
				</g>
				<g>
					<path style="fill:#371A45;" d="M1384.718,1886.723c-103.233,0-203.931-23.862-292.07-70.815
						c-138.291-73.667-235.986-196.221-282.524-354.409c-42.739-145.308-20.293-303.027,63.208-444.111
						c92.739-156.694,250.435-272.685,421.826-310.278c95.234-20.898,184.8-22.974,266.211-6.177l1.553,0.322l1.455,0.63
						c104.482,45.195,195.259,117.495,262.51,209.092c116.377,158.398,152.285,357.48,98.516,546.201l0,0
						c-29.809,104.609-86.621,200.43-164.292,277.095c-16.441,16.216-33.823,31.636-51.665,45.83
						c-8.106,6.489-17.041,13.257-27.28,20.649c-27.964,19.961-57.544,37.739-87.988,52.896l-2.231,0.898
						C1523.746,1876.074,1453.663,1886.723,1384.718,1886.723z M1447.984,720.551c-46.689,0-95.562,5.562-146.216,16.675
						c-163.193,35.796-313.437,146.401-401.899,295.869c-79.097,133.638-100.464,282.69-60.166,419.702
						c44.15,150.059,136.631,266.211,267.441,335.894c139.409,74.268,312.241,87.666,474.37,36.812
						c28.613-14.316,56.421-31.064,82.661-49.8c9.756-7.041,18.291-13.506,26.03-19.702c17.031-13.55,33.584-28.232,49.248-43.677
						c73.887-72.935,127.935-164.087,156.289-263.594c51.138-179.487,16.983-368.838-93.711-519.497
						c-63.706-86.772-149.59-155.352-248.447-198.413C1519.864,723.974,1484.591,720.551,1447.984,720.551z M1910.572,1452.954
						h0.049H1910.572z"/>
				</g>
				<g>
					<path style="fill:#FFFFFF;" d="M609.727,1473.297c19.994,121.008,109.255,210.753,199.395,200.426
						c90.14-10.327,146.999-116.804,127.004-237.812c-0.111-0.76-0.265-1.561-0.418-2.32
						c-20.719-119.837-109.471-208.368-198.977-198.106c-69.635,7.974-119.404,73.335-129.24,158.432
						C604.609,1418.973,605.182,1445.778,609.727,1473.297z"/>
				</g>
				<g>
					<path style="fill:#E8E8E8;" d="M609.727,1473.297c19.994,121.008,109.255,210.753,199.395,200.426
						c90.14-10.327,146.999-116.804,127.004-237.812c-0.111-0.76-0.265-1.561-0.418-2.32c-7.858,13.553-21.261,27.549-42.839,25.822
						c-37.794-3.042-116.333-73.331-116.333-73.331s-73.33,2.921-169.045,7.835C604.609,1418.973,605.182,1445.778,609.727,1473.297
						z"/>
				</g>
				<g>
					<path style="fill:#371A45;" d="M795.143,1689.926c-92.481,0.005-180.503-92.202-200.645-214.111
						c-12.29-74.36,2.3-145.679,40.024-195.664c26.196-34.717,60.928-55.454,100.435-59.98
						c97.983-11.23,195.098,84.414,216.377,213.213c12.285,74.36-2.305,145.679-40.029,195.669
						c-26.201,34.712-60.928,55.449-100.435,59.976C805.626,1689.628,800.372,1689.926,795.143,1689.926z M751.017,1250.092
						c-4.18,0-8.359,0.234-12.554,0.713c-30.908,3.54-58.34,20.112-79.326,47.92c-32.183,42.642-44.971,106.968-34.219,172.061l0,0
						c18.643,112.837,100.479,196.987,182.441,187.607c30.913-3.54,58.345-20.112,79.331-47.92
						c32.183-42.642,44.976-106.963,34.224-172.061C903.219,1331.347,828.614,1250.092,751.017,1250.092z"/>
				</g>
				<g>
					
						<ellipse transform="matrix(0.9665 -0.2568 0.2568 0.9665 -356.1556 235.5713)" style="fill:#FFFFFF;" cx="723.793" cy="1481.307" rx="133.463" ry="176.554"/>
					<path style="fill:#371A45;" d="M743.209,1657.041c-8.262,0-16.685-0.967-25.21-2.915
						c-42.461-9.692-81.128-42.529-106.089-90.093l0,0c-44.785-85.327-31.172-191.89,30.342-237.544
						c25.581-18.984,55.776-25.2,87.339-18.003c42.456,9.697,81.123,42.534,106.084,90.098
						c44.785,85.327,31.172,191.89-30.342,237.544C786.666,1649.98,765.528,1657.041,743.209,1657.041z M614.762,1562.539
						c24.526,46.724,62.417,78.96,103.955,88.447c30.625,6.973,59.902,0.957,84.692-17.446
						c60.293-44.751,73.491-149.482,29.414-233.462c-24.526-46.724-62.412-78.96-103.95-88.447
						c-30.61-6.992-59.902-0.962-84.697,17.446C583.878,1373.828,570.685,1478.554,614.762,1562.539L614.762,1562.539z"/>
				</g>
				<g>
					<path style="fill:#E8E8E8;" d="M860.5,1534.956c2.876-33.31-3.508-67.507-16.694-98.459
						c-13.046,75.415-74.143,115.186-142.114,89.623c-43.928-16.5-80.606-56.528-100.984-104.434
						c-0.854,4.751-1.461,9.7-1.908,14.751c-7.282,84.825,45.395,175.648,117.672,202.847
						C788.75,1666.483,853.212,1619.736,860.5,1534.956z"/>
				</g>
				<g>
					<path style="fill:#371A45;" d="M743.556,1671.308c-72.344,0-142.607-77.344-159.766-178.691
						c-10.679-63.042,1.167-124.726,31.68-164.995c19.736-26.045,45.684-41.47,75.029-44.6
						c76.108-8.12,152.432,71.807,170.43,178.125c10.674,63.047-1.172,124.727-31.685,164.995
						c-19.731,26.045-45.679,41.47-75.024,44.6C750.67,1671.118,747.106,1671.308,743.556,1671.308z M701.607,1313.271
						c-2.612,0-5.225,0.137-7.837,0.415c-20.674,2.202-39.253,13.462-53.721,32.559c-25.474,33.618-35.137,86.411-25.859,141.225
						c15.337,90.557,76.68,159.019,136.758,152.608c20.674-2.207,39.253-13.467,53.721-32.559
						c25.469-33.618,35.137-86.411,25.859-141.226C815.86,1379.677,759.088,1313.271,701.607,1313.271z"/>
				</g>
				<g style="opacity:0.5;">
					<path style="fill:#FFFFFF;" d="M1199.74,940.823c0,0,273.859-42.262,456.841,78.33c0.192,0.127,0.385,0.254,0.577,0.38
						c38.49,25.413,69.294,60.65,89.449,101.764c26.654,54.372,36.937,95.698,44.565,132.424
						c23.146,111.704,12.785,168.335,12.785,168.335c52.251-72.061,74.703-146.411,56.359-239.642
						c-1.833-9.186-4.068-18.591-6.67-28.173c-0.592-2.21-1.229-4.387-1.904-6.572c0.045-0.031,0.012-0.075-0.059-0.126
						c-6.657-19.041-16.363-43.738-29.674-70.69c-40.097-81.315-122.488-167.967-242.507-197.825
						C1355.086,823.196,1187.985,931.046,1199.74,940.823z"/>
				</g>
				<g style="opacity:0.5;">
					
						<ellipse transform="matrix(0.0693 -0.9976 0.9976 0.0693 -284.6473 2200.2197)" style="fill:#FFFFFF;" cx="1036.893" cy="1252.668" rx="95.828" ry="83.423"/>
				</g>
				<g style="opacity:0.5;">
					
						<ellipse transform="matrix(0.1617 -0.9868 0.9868 0.1617 -547.3499 2208.5488)" style="fill:#FFFFFF;" cx="1026.302" cy="1426.451" rx="39.585" ry="34.435"/>
				</g>
			</g>
		</g>
	</g>
</g>
</svg>
